<svg xmlns="http://www.w3.org/2000/svg" viewBox="-32 -32 64 64">
    <defs>
        <!-- Green Background Gradient -->
        <radialGradient id="healthGradient" cx="50%" cy="50%" r="50%" fx="50%" fy="50%">
            <stop offset="0%" style="stop-color:#33dd33;stop-opacity:1" />
            <stop offset="70%" style="stop-color:#22aa22;stop-opacity:1" />
            <stop offset="100%" style="stop-color:#118811;stop-opacity:1" />
        </radialGradient>

        <!-- Power-up Glow -->
        <filter id="powerupGlow" x="-0.2" y="-0.2" width="1.4" height="1.4">
            <feGaussianBlur stdDeviation="2" result="blur" />
            <feFlood flood-color="#33dd33" flood-opacity="0.7" result="glow" />
            <feComposite in="glow" in2="blur" operator="in" result="softGlow" />
            <feComposite in="SourceGraphic" in2="softGlow" operator="over" />
        </filter>

        <!-- Highlight Gleam -->
        <linearGradient id="highlightGleam" x1="0%" y1="0%" x2="100%" y2="100%">
            <stop offset="0%" style="stop-color:#fff;stop-opacity:0.9" />
            <stop offset="100%" style="stop-color:#fff;stop-opacity:0" />
        </linearGradient>
    </defs>

    <!-- Health Power-up -->
    <g id="healthPowerup" filter="url(#powerupGlow)">
        <!-- Base circle -->
        <circle cx="0" cy="0" r="16" fill="url(#healthGradient)" stroke="#118811" stroke-width="2" />

        <!-- Medical Cross Symbol -->
        <rect x="-10" y="-3" width="20" height="6" rx="1" ry="1" fill="#fff" />
        <rect x="-3" y="-10" width="6" height="20" rx="1" ry="1" fill="#fff" />

        <!-- Pulse Line -->
        <path d="M-12,2 L-8,2 L-6,-2 L-3,6 L0,-2 L3,6 L6,-2 L8,2 L12,2" stroke="#fff" stroke-width="1.5" fill="none" />

        <!-- Healing Rays -->
        <path d="M-16,-16 L-12,-12 M16,-16 L12,-12 M-16,16 L-12,12 M16,16 L12,12" stroke="#88ff88" stroke-width="1.5" />
        <path d="M-16,0 L-12,0 M0,-16 L0,-12 M16,0 L12,0 M0,16 L0,12" stroke="#88ff88" stroke-width="1.5" />

        <!-- Healing Particles -->
        <circle cx="-10" cy="-8" r="1" fill="#fff" />
        <circle cx="12" cy="-2" r="1" fill="#fff" />
        <circle cx="-6" cy="10" r="1" fill="#fff" />
        <circle cx="8" cy="9" r="1" fill="#fff" />

        <!-- Highlight gleam -->
        <path d="M-8,-8 L-2,-2" stroke="url(#highlightGleam)" stroke-width="3" stroke-linecap="round" />

        <!-- Orbital ring -->
        <circle cx="0" cy="0" r="20" fill="none" stroke="#33dd33" stroke-width="0.5" stroke-dasharray="2 3"
            stroke-opacity="0.7" />
    </g>
</svg>