<?xml version="1.0" encoding="UTF-8"?>
<svg xmlns="http://www.w3.org/2000/svg" viewBox="0 0 32 32">
    <defs>
        <linearGradient id="blueprintBg" x1="0%" y1="0%" x2="100%" y2="100%">
            <stop offset="0%" style="stop-color:#39c;stop-opacity:1" />
            <stop offset="100%" style="stop-color:#17a;stop-opacity:1" />
        </linearGradient>
        
        <filter id="paper" x="-10%" y="-10%" width="120%" height="120%">
            <feTurbulence type="fractalNoise" baseFrequency="0.04" numOctaves="5" seed="1" />
            <feDisplacementMap in="SourceGraphic" scale="1" />
        </filter>
        
        <filter id="shadow" x="-20%" y="-20%" width="140%" height="140%">
            <feDropShadow dx="1" dy="1" stdDeviation="1" flood-color="#000" flood-opacity="0.5"/>
        </filter>
    </defs>
    
    <!-- Blueprint Paper -->
    <rect x="5" y="5" width="22" height="22" rx="1" ry="1" 
          fill="url(#blueprintBg)" filter="url(#paper)" />
    
    <!-- Blueprint Border -->
    <rect x="5" y="5" width="22" height="22" rx="1" ry="1" 
          fill="none" stroke="#fff" stroke-width="0.5" stroke-dasharray="1 1" />
    
    <!-- Tower Schematic Outline (simplified top-down view) -->
    <rect x="10" y="15" width="12" height="8" 
          fill="none" stroke="#fff" stroke-width="0.8" />
    <circle cx="16" cy="13" r="3" 
            fill="none" stroke="#fff" stroke-width="0.8" />
    <line x1="16" y1="10" x2="16" y2="8" 
          stroke="#fff" stroke-width="1" />
    
    <!-- Blueprint Grid -->
    <path d="M5 10 L27 10 M5 15 L27 15 M5 20 L27 20 M5 25 L27 25" 
          stroke="#fff" stroke-width="0.2" stroke-dasharray="0.5 0.5" />
    <path d="M10 5 L10 27 M15 5 L15 27 M20 5 L20 27 M25 5 L25 27" 
          stroke="#fff" stroke-width="0.2" stroke-dasharray="0.5 0.5" />
    
    <!-- Allied Symbol in Corner -->
    <path d="M24,24 L26,24 L25,22 Z" fill="#fff" stroke="#fff" stroke-width="0.2" />
    
    <!-- Dimension Lines -->
    <path d="M10,25 L10,26 L22,26 L22,25" stroke="#fff" stroke-width="0.3" />
    <text x="16" y="27.5" font-family="Arial, sans-serif" font-size="2"
          text-anchor="middle" fill="#fff">12 m</text>
</svg> 