<?xml version="1.0" encoding="UTF-8"?>
<svg xmlns="http://www.w3.org/2000/svg" viewBox="0 0 64 64">
    <defs>
        <radialGradient id="healthGlow" cx="50%" cy="50%" r="50%">
            <stop offset="0%" style="stop-color:#f88;stop-opacity:1" />
            <stop offset="50%" style="stop-color:#e44;stop-opacity:1" />
            <stop offset="100%" style="stop-color:#c00;stop-opacity:1" />
        </radialGradient>
        
        <linearGradient id="metalGradient" x1="0%" y1="0%" x2="100%" y2="100%">
            <stop offset="0%" style="stop-color:#ccc;stop-opacity:1" />
            <stop offset="40%" style="stop-color:#aaa;stop-opacity:1" />
            <stop offset="60%" style="stop-color:#999;stop-opacity:1" />
            <stop offset="100%" style="stop-color:#888;stop-opacity:1" />
        </linearGradient>
        
        <linearGradient id="techGradient" x1="0%" y1="0%" x2="0%" y2="100%">
            <stop offset="0%" style="stop-color:#28c;stop-opacity:1" />
            <stop offset="100%" style="stop-color:#17a;stop-opacity:1" />
        </linearGradient>
        
        <filter id="glow" x="-30%" y="-30%" width="160%" height="160%">
            <feGaussianBlur stdDeviation="3" result="blur" />
            <feComposite in="SourceGraphic" in2="blur" operator="over" />
        </filter>
        
        <filter id="shadow" x="-20%" y="-20%" width="140%" height="140%">
            <feDropShadow dx="3" dy="3" stdDeviation="2" flood-color="#000" flood-opacity="0.7"/>
        </filter>
    </defs>
    
    <!-- Base Ground Oval -->
    <ellipse cx="32" cy="52" rx="15" ry="5" fill="#555" opacity="0.6" />
    
    <!-- Base Platform -->
    <rect x="16" y="48" width="32" height="4" rx="2" ry="2"
          fill="#666" stroke="#444" stroke-width="1" />
    <path d="M23,48 L26,44 L38,44 L41,48" fill="none" stroke="#444" stroke-width="1" />
    
    <!-- Main Metal Case -->
    <rect x="20" y="10" width="24" height="34" rx="3" ry="3" 
          fill="url(#metalGradient)" stroke="#444" stroke-width="1.5" filter="url(#shadow)" />
    
    <!-- Top Cap -->
    <rect x="24" y="6" width="16" height="6" rx="2" ry="2" 
          fill="#999" stroke="#444" stroke-width="1" />
    <line x1="28" y1="9" x2="36" y2="9" stroke="#666" stroke-width="1.5" />
    
    <!-- Valve Top -->
    <circle cx="32" cy="8" r="3" fill="#777" stroke="#444" stroke-width="0.8" />
    <circle cx="32" cy="8" r="1.5" fill="#555" />
    <line x1="30" y1="6" x2="34" y2="10" stroke="#444" stroke-width="0.5" />
    <line x1="30" y1="10" x2="34" y2="6" stroke="#444" stroke-width="0.5" />
    
    <!-- Red Cross Symbol -->
    <rect x="25" y="18" width="14" height="22" fill="url(#healthGlow)" />
    <rect x="18" y="24" width="28" height="10" fill="url(#healthGlow)" />
    
    <!-- Rivets -->
    <circle cx="23" cy="14" r="1.5" fill="#777" stroke="#444" stroke-width="0.5" />
    <circle cx="41" cy="14" r="1.5" fill="#777" stroke="#444" stroke-width="0.5" />
    <circle cx="23" cy="40" r="1.5" fill="#777" stroke="#444" stroke-width="0.5" />
    <circle cx="41" cy="40" r="1.5" fill="#777" stroke="#444" stroke-width="0.5" />
    
    <!-- Warning Stripes -->
    <rect x="20" y="18" width="4" height="2" fill="#000" />
    <rect x="20" y="22" width="4" height="2" fill="#ff0" />
    <rect x="20" y="26" width="4" height="2" fill="#000" />
    <rect x="20" y="30" width="4" height="2" fill="#ff0" />
    <rect x="20" y="34" width="4" height="2" fill="#000" />
    <rect x="20" y="38" width="4" height="2" fill="#ff0" />
    
    <rect x="40" y="18" width="4" height="2" fill="#000" />
    <rect x="40" y="22" width="4" height="2" fill="#ff0" />
    <rect x="40" y="26" width="4" height="2" fill="#000" />
    <rect x="40" y="30" width="4" height="2" fill="#ff0" />
    <rect x="40" y="34" width="4" height="2" fill="#000" />
    <rect x="40" y="38" width="4" height="2" fill="#ff0" />
    
    <!-- Tech Details -->
    <rect x="26" y="14" width="12" height="3" rx="1" ry="1" fill="#333" />
    <rect x="27" y="14.5" width="10" height="2" fill="url(#techGradient)" />
    
    <!-- Small Accessory Containers -->
    <rect x="14" y="24" width="6" height="12" rx="1" ry="1"
          fill="url(#metalGradient)" stroke="#444" stroke-width="1" />
    <rect x="16" y="26" width="2" height="8" fill="url(#techGradient)" />
    <circle cx="17" cy="25" r="0.8" fill="#c00" />
    
    <rect x="44" y="24" width="6" height="12" rx="1" ry="1"
          fill="url(#metalGradient)" stroke="#444" stroke-width="1" />
    <rect x="46" y="26" width="2" height="8" fill="url(#techGradient)" />
    <circle cx="47" cy="25" r="0.8" fill="#c00" />
    
    <!-- Tubes -->
    <path d="M14,28 C10,28 8,30 8,34 C8,38 10,40 14,40" 
          fill="none" stroke="#888" stroke-width="1.5" />
    <path d="M50,28 C54,28 56,30 56,34 C56,38 54,40 50,40" 
          fill="none" stroke="#888" stroke-width="1.5" />
    
    <!-- Glow Effect -->
    <circle cx="32" cy="29" r="20" fill="url(#healthGlow)" opacity="0.15" filter="url(#glow)" />
</svg> 