<?xml version="1.0" encoding="UTF-8"?>
<svg xmlns="http://www.w3.org/2000/svg" viewBox="0 0 64 64">
    <defs>
        <radialGradient id="oreGlow" cx="50%" cy="50%" r="50%">
            <stop offset="0%" style="stop-color:#8df;stop-opacity:1" />
            <stop offset="40%" style="stop-color:#4af;stop-opacity:1" />
            <stop offset="70%" style="stop-color:#28c;stop-opacity:1" />
            <stop offset="100%" style="stop-color:#17a;stop-opacity:1" />
        </radialGradient>
        
        <filter id="shadow" x="-20%" y="-20%" width="140%" height="140%">
            <feDropShadow dx="3" dy="3" stdDeviation="2" flood-color="#000" flood-opacity="0.7"/>
        </filter>
        
        <filter id="glow" x="-30%" y="-30%" width="160%" height="160%">
            <feGaussianBlur stdDeviation="3" result="blur" />
            <feComposite in="SourceGraphic" in2="blur" operator="over" />
        </filter>
    </defs>
    
    <!-- Base Ground Oval -->
    <ellipse cx="32" cy="50" rx="20" ry="7" fill="#444" opacity="0.6" />
    
    <!-- Main Crystal Cluster -->
    <polygon points="32,8 18,18 14,38 32,54 50,38 46,18" 
             fill="#246" stroke="#123" stroke-width="1.5" filter="url(#shadow)" />
    
    <!-- Crystal Facets - Main -->
    <path d="M32,8 L18,18 L32,28 Z" fill="#39c" />
    <path d="M32,8 L46,18 L32,28 Z" fill="#28b" />
    <path d="M18,18 L14,38 L32,54 L32,28 Z" fill="#17a" />
    <path d="M46,18 L50,38 L32,54 L32,28 Z" fill="#069" />
    
    <!-- Secondary Crystal Cluster - Left -->
    <polygon points="14,30 8,34 10,44 22,46" 
             fill="#246" stroke="#123" stroke-width="1" filter="url(#shadow)" />
    <path d="M14,30 L8,34 L10,44 Z" fill="#28b" />
    <path d="M14,30 L10,44 L22,46 Z" fill="#17a" />
    
    <!-- Secondary Crystal Cluster - Right -->
    <polygon points="50,30 56,34 54,44 42,46" 
             fill="#246" stroke="#123" stroke-width="1" filter="url(#shadow)" />
    <path d="M50,30 L56,34 L54,44 Z" fill="#28b" />
    <path d="M50,30 L54,44 L42,46 Z" fill="#17a" />
    
    <!-- Small Crystal Formations -->
    <polygon points="24,44 20,48 22,52 26,50" 
             fill="#17a" stroke="#123" stroke-width="0.8" />
    <polygon points="40,44 44,48 42,52 38,50" 
             fill="#17a" stroke="#123" stroke-width="0.8" />
    
    <!-- Crystal Highlights -->
    <path d="M32,8 L25,14 L32,20 Z" fill="url(#oreGlow)" opacity="0.7" />
    <path d="M32,28 L26,40 L32,54 Z" fill="url(#oreGlow)" opacity="0.5" />
    <path d="M14,38 L20,41 L26,40 Z" fill="url(#oreGlow)" opacity="0.4" />
    <path d="M50,38 L44,41 L38,40 Z" fill="url(#oreGlow)" opacity="0.4" />
    
    <!-- Glow and Sparkles -->
    <circle cx="32" cy="32" r="24" fill="url(#oreGlow)" opacity="0.15" filter="url(#glow)" />
    <circle cx="26" cy="20" r="1.5" fill="#fff" opacity="0.9" />
    <circle cx="38" cy="24" r="1.2" fill="#fff" opacity="0.8" />
    <circle cx="30" cy="32" r="1.4" fill="#fff" opacity="0.7" />
    <circle cx="22" cy="38" r="1.0" fill="#fff" opacity="0.8" />
    <circle cx="36" cy="38" r="1.1" fill="#fff" opacity="0.6" />
    <circle cx="12" cy="38" r="0.8" fill="#fff" opacity="0.7" />
    <circle cx="52" cy="38" r="0.8" fill="#fff" opacity="0.7" />
    <circle cx="28" cy="48" r="0.9" fill="#fff" opacity="0.6" />
    
    <!-- Energy Wisps -->
    <path d="M26,18 C28,15 32,16 34,14" stroke="#8df" stroke-width="0.5" 
          stroke-linecap="round" opacity="0.6" />
    <path d="M38,20 C40,17 42,20 45,18" stroke="#8df" stroke-width="0.5" 
          stroke-linecap="round" opacity="0.6" />
    <path d="M20,32 C22,29 20,26 18,24" stroke="#8df" stroke-width="0.5" 
          stroke-linecap="round" opacity="0.6" />
    <path d="M44,32 C42,29 44,26 46,24" stroke="#8df" stroke-width="0.5" 
          stroke-linecap="round" opacity="0.6" />
</svg> 