<svg xmlns="http://www.w3.org/2000/svg" viewBox="-32 -32 64 64">
    <defs>
        <!-- Metal Texture Gradient -->
        <linearGradient id="metalGradient" x1="0%" y1="0%" x2="100%" y2="100%">
            <stop offset="0%" style="stop-color:#aaa;stop-opacity:1" />
            <stop offset="40%" style="stop-color:#888;stop-opacity:1" />
            <stop offset="70%" style="stop-color:#666;stop-opacity:1" />
            <stop offset="100%" style="stop-color:#555;stop-opacity:1" />
        </linearGradient>

        <!-- Metal Panel Pattern -->
        <pattern id="metalPanel" patternUnits="userSpaceOnUse" width="16" height="16">
            <rect width="16" height="16" fill="url(#metalGradient)" />
            <rect x="0.5" y="0.5" width="15" height="15" fill="none" stroke="#444" stroke-width="0.5" />
            <path d="M0 8 L16 8 M8 0 L8 16" stroke="#444" stroke-width="0.3" />
        </pattern>

        <filter id="shadow" x="-0.2" y="-0.2" width="1.4" height="1.4">
            <feDropShadow dx="2" dy="2" stdDeviation="1.5" flood-color="#000" flood-opacity="0.6" />
        </filter>
    </defs>

    <!-- Metal Crate -->
    <g id="metalCrate" filter="url(#shadow)">
        <!-- Base of the crate -->
        <rect x="-16" y="-16" width="32" height="32" rx="1" ry="1" fill="url(#metalPanel)" stroke="#444"
            stroke-width="2" />

        <!-- Edge reinforcements -->
        <path d="M-16 -16 L16 -16 M-16 16 L16 16 M-16 -16 L-16 16 M16 -16 L16 16" stroke="#333" stroke-width="3" />

        <!-- Corner brackets -->
        <path d="M-16 -16 L-13 -13 M16 -16 L13 -13 M-16 16 L-13 13 M16 16 L13 13" stroke="#333" stroke-width="2" />
        <circle cx="-13" cy="-13" r="1.5" fill="#222" />
        <circle cx="13" cy="-13" r="1.5" fill="#222" />
        <circle cx="-13" cy="13" r="1.5" fill="#222" />
        <circle cx="13" cy="13" r="1.5" fill="#222" />

        <!-- Panel details -->
        <rect x="-12" y="-12" width="24" height="24" rx="1" ry="1" fill="none" stroke="#444" stroke-width="1" />
        <path d="M0 -12 L0 12 M-12 0 L12 0" stroke="#444" stroke-width="1" />

        <!-- Rivets -->
        <circle cx="-12" cy="-12" r="1" fill="#777" stroke="#555" stroke-width="0.3" />
        <circle cx="0" cy="-12" r="1" fill="#777" stroke="#555" stroke-width="0.3" />
        <circle cx="12" cy="-12" r="1" fill="#777" stroke="#555" stroke-width="0.3" />
        <circle cx="-12" cy="0" r="1" fill="#777" stroke="#555" stroke-width="0.3" />
        <circle cx="12" cy="0" r="1" fill="#777" stroke="#555" stroke-width="0.3" />
        <circle cx="-12" cy="12" r="1" fill="#777" stroke="#555" stroke-width="0.3" />
        <circle cx="0" cy="12" r="1" fill="#777" stroke="#555" stroke-width="0.3" />
        <circle cx="12" cy="12" r="1" fill="#777" stroke="#555" stroke-width="0.3" />

        <!-- Warning hazard symbol -->
        <path d="M0,-7 L7,7 L-7,7 Z" fill="#444" stroke="#333" stroke-width="0.5" />
        <text x="0" y="5" font-family="Arial" font-size="8" font-weight="bold" fill="#ddd" text-anchor="middle">!</text>

        <!-- ID code -->
        <text x="0" y="-5" font-family="Arial" font-size="4" fill="#fff" text-anchor="middle">MT-01</text>
    </g>
</svg>