<svg xmlns="http://www.w3.org/2000/svg" viewBox="-32 -32 64 64">
    <defs>
        <!-- Wood Texture Gradient -->
        <linearGradient id="woodGradient" x1="0%" y1="0%" x2="100%" y2="100%">
            <stop offset="0%" style="stop-color:#b58b4c;stop-opacity:1" />
            <stop offset="40%" style="stop-color:#9e7339;stop-opacity:1" />
            <stop offset="70%" style="stop-color:#8b632b;stop-opacity:1" />
            <stop offset="100%" style="stop-color:#6b4c20;stop-opacity:1" />
        </linearGradient>
        
        <!-- Wood Grain Pattern -->
        <pattern id="woodGrain" patternUnits="userSpaceOnUse" width="20" height="20">
            <rect width="20" height="20" fill="url(#woodGradient)"/>
            <path d="M0 5 L20 5 M0 15 L20 15" stroke="#6b4c20" stroke-width="0.5" stroke-opacity="0.5"/>
            <path d="M5 0 L5 20 M15 0 L15 20" stroke="#6b4c20" stroke-width="0.5" stroke-opacity="0.5"/>
        </pattern>
        
        <filter id="shadow" x="-0.2" y="-0.2" width="1.4" height="1.4">
            <feDropShadow dx="2" dy="2" stdDeviation="1.5" flood-color="#000" flood-opacity="0.6"/>
        </filter>
    </defs>
    
    <!-- Wooden Crate -->
    <g id="woodenCrate" filter="url(#shadow)">
        <!-- Base of the crate -->
        <rect x="-16" y="-16" width="32" height="32" rx="2" ry="2" 
              fill="url(#woodGrain)" stroke="#6b4c20" stroke-width="2" />
        
        <!-- Top boards -->
        <rect x="-16" y="-16" width="32" height="6" fill="#9e7339" stroke="#6b4c20" stroke-width="1" />
        <path d="M-16 -10 L16 -10" stroke="#5a3d1a" stroke-width="1.5" />
        
        <!-- Bottom boards -->
        <rect x="-16" y="10" width="32" height="6" fill="#9e7339" stroke="#6b4c20" stroke-width="1" />
        <path d="M-16 10 L16 10" stroke="#5a3d1a" stroke-width="1.5" />
        
        <!-- Side boards -->
        <rect x="-16" y="-10" width="6" height="20" fill="#b58b4c" stroke="#6b4c20" stroke-width="1" />
        <path d="M-10 -10 L-10 10" stroke="#5a3d1a" stroke-width="1.5" />
        
        <rect x="10" y="-10" width="6" height="20" fill="#b58b4c" stroke="#6b4c20" stroke-width="1" />
        <path d="M10 -10 L10 10" stroke="#5a3d1a" stroke-width="1.5" />
        
        <!-- Grain details -->
        <path d="M-12 -13 L12 -13 M-12 -3 L12 -3 M-12 7 L12 7 M-12 17 L12 17" 
              stroke="#6b4c20" stroke-width="0.5" stroke-dasharray="3 2" />
        <path d="M-13 -10 L-13 10 M-3 -10 L-3 10 M7 -10 L7 10 M17 -10 L17 10" 
              stroke="#6b4c20" stroke-width="0.5" stroke-dasharray="3 2" />
        
        <!-- Nail details -->
        <circle cx="-12" cy="-12" r="1" fill="#aaa" stroke="#888" stroke-width="0.3" />
        <circle cx="12" cy="-12" r="1" fill="#aaa" stroke="#888" stroke-width="0.3" />
        <circle cx="-12" cy="12" r="1" fill="#aaa" stroke="#888" stroke-width="0.3" />
        <circle cx="12" cy="12" r="1" fill="#aaa" stroke="#888" stroke-width="0.3" />
        
        <!-- "SUPPLIES" stencil -->
        <text x="0" y="2" font-family="Arial" font-size="5" fill="#333" text-anchor="middle" transform="rotate(-5)">SUPPLIES</text>
    </g>
</svg>