<?xml version="1.0" encoding="UTF-8"?>
<svg xmlns="http://www.w3.org/2000/svg" viewBox="0 0 64 64">
    <defs>
        <linearGradient id="blueprintBg" x1="0%" y1="0%" x2="100%" y2="100%">
            <stop offset="0%" style="stop-color:#2a4b8d;stop-opacity:1" />
            <stop offset="100%" style="stop-color:#1a3366;stop-opacity:1" />
        </linearGradient>
        
        <filter id="paperTexture" x="-10%" y="-10%" width="120%" height="120%">
            <feTurbulence type="fractalNoise" baseFrequency="0.04" numOctaves="5" result="noise" />
            <feColorMatrix type="matrix" values="1 0 0 0 0 0 1 0 0 0 0 0 1 0 0 0 0 0 0.3 0" in="noise" result="noisealpha" />
            <feComposite operator="in" in="SourceGraphic" in2="noisealpha" />
        </filter>
        
        <filter id="shadow" x="-10%" y="-10%" width="120%" height="120%">
            <feDropShadow dx="2" dy="2" stdDeviation="1" flood-color="#000" flood-opacity="0.5"/>
        </filter>
    </defs>
    
    <!-- Blueprint Paper -->
    <rect x="4" y="4" width="56" height="56" rx="2" ry="2" 
          fill="url(#blueprintBg)" filter="url(#paperTexture)" />
    
    <!-- Border -->
    <rect x="6" y="6" width="52" height="52" rx="1" ry="1" 
          fill="none" stroke="#fff" stroke-width="0.5" stroke-opacity="0.7" />
          
    <!-- Title -->
    <text x="32" y="12" font-family="Arial, sans-serif" font-weight="bold" font-size="3.5"
          text-anchor="middle" fill="#fff" letter-spacing="0.5">SNIPER DEFENSE TOWER</text>
    <line x1="12" y1="14" x2="52" y2="14" stroke="#fff" stroke-width="0.5" stroke-opacity="0.7" />
    
    <!-- Grid -->
    <g stroke="#fff" stroke-width="0.2" stroke-opacity="0.3">
        <line x1="10" y1="16" x2="10" y2="54" />
        <line x1="15" y1="16" x2="15" y2="54" />
        <line x1="20" y1="16" x2="20" y2="54" />
        <line x1="25" y1="16" x2="25" y2="54" />
        <line x1="30" y1="16" x2="30" y2="54" />
        <line x1="35" y1="16" x2="35" y2="54" />
        <line x1="40" y1="16" x2="40" y2="54" />
        <line x1="45" y1="16" x2="45" y2="54" />
        <line x1="50" y1="16" x2="50" y2="54" />
        <line x1="55" y1="16" x2="55" y2="54" />
        
        <line x1="10" y1="16" x2="55" y2="16" />
        <line x1="10" y1="21" x2="55" y2="21" />
        <line x1="10" y1="26" x2="55" y2="26" />
        <line x1="10" y1="31" x2="55" y2="31" />
        <line x1="10" y1="36" x2="55" y2="36" />
        <line x1="10" y1="41" x2="55" y2="41" />
        <line x1="10" y1="46" x2="55" y2="46" />
        <line x1="10" y1="51" x2="55" y2="51" />
    </g>
    
    <!-- Tower Base -->
    <rect x="25" y="41" width="14" height="10" 
          fill="none" stroke="#fff" stroke-width="0.8" />
    
    <!-- Tower Structure -->
    <rect x="27" y="26" width="10" height="15" 
          fill="none" stroke="#fff" stroke-width="0.8" />
    
    <!-- Sniper Position -->
    <rect x="24" y="20" width="16" height="6" rx="1" ry="1"
          fill="none" stroke="#fff" stroke-width="0.8" />
    
    <!-- Sniper Barrel -->
    <line x1="32" y1="16" x2="32" y2="20" stroke="#fff" stroke-width="1" />
    <circle cx="32" cy="23" r="1.5" fill="none" stroke="#fff" stroke-width="0.8" />
    
    <!-- Dimensions -->
    <path d="M22,51 L22,41 L25,41" fill="none" stroke="#fff" stroke-width="0.3" stroke-dasharray="0.5,0.5" />
    <text x="21" y="46" font-family="Arial, sans-serif" font-size="2"
          text-anchor="end" fill="#fff">10m</text>
          
    <path d="M39,54 L39,51 L25,51" fill="none" stroke="#fff" stroke-width="0.3" stroke-dasharray="0.5,0.5" />
    <text x="32" y="55" font-family="Arial, sans-serif" font-size="2"
          text-anchor="middle" fill="#fff">14m</text>
          
    <path d="M40,41 L40,26 L37,26" fill="none" stroke="#fff" stroke-width="0.3" stroke-dasharray="0.5,0.5" />
    <text x="41" y="33.5" font-family="Arial, sans-serif" font-size="2"
          text-anchor="start" fill="#fff">15m</text>
          
    <path d="M24,23 L20,23 L20,20 L24,20" fill="none" stroke="#fff" stroke-width="0.3" stroke-dasharray="0.5,0.5" />
    <text x="19" y="21.5" font-family="Arial, sans-serif" font-size="2"
          text-anchor="end" fill="#fff">6m</text>
    
    <!-- Allied Symbol -->
    <polygon points="12,54 16,50 20,54 16,58" fill="none" stroke="#fff" stroke-width="0.8" />
    <circle cx="16" cy="54" r="1.5" fill="#fff" />
    
    <!-- Notes -->
    <text x="50" y="19" font-family="Arial, sans-serif" font-size="2"
          text-anchor="end" fill="#fff">PRECISION TARGETING</text>
          
    <text x="50" y="39" font-family="Arial, sans-serif" font-size="2"
          text-anchor="end" fill="#fff">REINFORCED STRUCTURE</text>
          
    <text x="50" y="49" font-family="Arial, sans-serif" font-size="2"
          text-anchor="end" fill="#fff">CONCRETE FOUNDATION</text>
          
    <!-- Tech Specs -->
    <rect x="42" y="42" width="12" height="12" rx="1" ry="1"
          fill="none" stroke="#fff" stroke-width="0.5" stroke-opacity="0.7" />
          
    <text x="48" y="45" font-family="Arial, sans-serif" font-size="2"
          text-anchor="middle" fill="#fff">TECH SPECS</text>
          
    <text x="43" y="48" font-family="Arial, sans-serif" font-size="1.8"
          fill="#fff">RANGE: 80</text>
          
    <text x="43" y="50" font-family="Arial, sans-serif" font-size="1.8"
          fill="#fff">DMG: 120</text>
          
    <text x="43" y="52" font-family="Arial, sans-serif" font-size="1.8"
          fill="#fff">RATE: 0.8/s</text>
</svg> 