<?xml version="1.0" encoding="UTF-8"?>
<svg xmlns="http://www.w3.org/2000/svg" viewBox="0 0 48 48">
    <defs>
        <radialGradient id="oreGlow" cx="50%" cy="50%" r="50%">
            <stop offset="0%" style="stop-color:#8df;stop-opacity:1" />
            <stop offset="40%" style="stop-color:#4af;stop-opacity:1" />
            <stop offset="70%" style="stop-color:#28c;stop-opacity:1" />
            <stop offset="100%" style="stop-color:#17a;stop-opacity:1" />
        </radialGradient>
        
        <filter id="shadow" x="-20%" y="-20%" width="140%" height="140%">
            <feDropShadow dx="2" dy="2" stdDeviation="1.5" flood-color="#000" flood-opacity="0.6"/>
        </filter>
        
        <filter id="glow" x="-30%" y="-30%" width="160%" height="160%">
            <feGaussianBlur stdDeviation="2" result="blur" />
            <feComposite in="SourceGraphic" in2="blur" operator="over" />
        </filter>
    </defs>
    
    <!-- Base Ground Circle -->
    <ellipse cx="24" cy="38" rx="14" ry="5" fill="#555" opacity="0.6" />
    
    <!-- Resource Base -->
    <polygon points="24,8 14,15 12,28 24,38 36,28 34,15" 
             fill="#246" stroke="#123" stroke-width="1" filter="url(#shadow)" />
    
    <!-- Crystal Facets -->
    <path d="M24,8 L14,15 L24,22 Z" fill="#39c" />
    <path d="M24,8 L34,15 L24,22 Z" fill="#28b" />
    <path d="M14,15 L12,28 L24,38 L24,22 Z" fill="#17a" />
    <path d="M34,15 L36,28 L24,38 L24,22 Z" fill="#069" />
    
    <!-- Crystal Highlights -->
    <path d="M24,8 L19,11.5 L24,15 Z" fill="url(#oreGlow)" opacity="0.7" />
    <path d="M24,22 L20,30 L24,38 Z" fill="url(#oreGlow)" opacity="0.5" />
    <path d="M12,28 L16,33 L20,30 Z" fill="url(#oreGlow)" opacity="0.4" />
    
    <!-- Glow and Sparkles -->
    <circle cx="24" cy="24" r="16" fill="url(#oreGlow)" opacity="0.2" filter="url(#glow)" />
    <circle cx="19" cy="18" r="1.2" fill="#fff" opacity="0.9" />
    <circle cx="28" cy="22" r="0.8" fill="#fff" opacity="0.8" />
    <circle cx="22" cy="26" r="1.0" fill="#fff" opacity="0.7" />
    <circle cx="16" cy="24" r="0.6" fill="#fff" opacity="0.8" />
    <circle cx="26" cy="28" r="0.7" fill="#fff" opacity="0.6" />
    
    <!-- Additional Crystal Cluster -->
    <polygon points="30,22 32,18 36,20 34,25" 
             fill="#17a" stroke="#123" stroke-width="0.8" />
    <polygon points="32,18 36,20 34,16" 
             fill="#28b" />
    <circle cx="33" cy="19" r="0.5" fill="#fff" opacity="0.8" />
</svg> 