<?xml version="1.0" encoding="UTF-8"?>
<svg xmlns="http://www.w3.org/2000/svg" viewBox="0 0 64 32">
    <defs>
        <linearGradient id="metalGradient" x1="0%" y1="0%" x2="100%" y2="100%">
            <stop offset="0%" style="stop-color:#ccc;stop-opacity:1" />
            <stop offset="40%" style="stop-color:#aaa;stop-opacity:1" />
            <stop offset="60%" style="stop-color:#999;stop-opacity:1" />
            <stop offset="100%" style="stop-color:#888;stop-opacity:1" />
        </linearGradient>
        
        <linearGradient id="darkMetal" x1="0%" y1="0%" x2="100%" y2="100%">
            <stop offset="0%" style="stop-color:#777;stop-opacity:1" />
            <stop offset="50%" style="stop-color:#555;stop-opacity:1" />
            <stop offset="100%" style="stop-color:#333;stop-opacity:1" />
        </linearGradient>
        
        <linearGradient id="blueGlow" x1="0%" y1="0%" x2="100%" y2="100%">
            <stop offset="0%" style="stop-color:#6cf;stop-opacity:1" />
            <stop offset="50%" style="stop-color:#28c;stop-opacity:1" />
            <stop offset="100%" style="stop-color:#17a;stop-opacity:1" />
        </linearGradient>
        
        <filter id="shadow" x="-10%" y="-10%" width="120%" height="120%">
            <feDropShadow dx="1" dy="1" stdDeviation="1" flood-color="#000" flood-opacity="0.6"/>
        </filter>
    </defs>
    
    <!-- Handle -->
    <rect x="4" y="16" width="10" height="12" rx="1" ry="1" 
          fill="url(#darkMetal)" stroke="#222" stroke-width="0.8" filter="url(#shadow)" />
    <rect x="6" y="19" width="6" height="6" rx="1" ry="1" fill="#444" stroke="#222" stroke-width="0.5" />
    
    <!-- Trigger Guard -->
    <path d="M14,21 C14,17 14,17 18,17 L18,27 L14,27 Z" 
          fill="url(#darkMetal)" stroke="#222" stroke-width="0.8" />
    
    <!-- Trigger -->
    <rect x="15" y="20" width="2" height="5" rx="1" ry="1" fill="#222" />
    
    <!-- Main Body -->
    <rect x="18" y="14" width="24" height="10" rx="2" ry="2" 
          fill="url(#metalGradient)" stroke="#444" stroke-width="1" filter="url(#shadow)" />
    <rect x="18" y="16" width="24" height="6" fill="url(#darkMetal)" />
    
    <!-- Ammo Magazine -->
    <rect x="22" y="24" width="8" height="5" rx="1" ry="1" 
          fill="url(#darkMetal)" stroke="#222" stroke-width="0.8" />
    <rect x="22" y="22" width="8" height="2" rx="0.5" ry="0.5" fill="#444" stroke="#222" stroke-width="0.5" />
    <line x1="24" y1="24.5" x2="24" y2="28.5" stroke="#222" stroke-width="0.5" />
    <line x1="26" y1="24.5" x2="26" y2="28.5" stroke="#222" stroke-width="0.5" />
    <line x1="28" y1="24.5" x2="28" y2="28.5" stroke="#222" stroke-width="0.5" />
    
    <!-- Twin Barrels -->
    <rect x="42" y="16" width="18" height="3" rx="1.5" ry="1.5" 
          fill="url(#metalGradient)" stroke="#444" stroke-width="0.8" />
    <rect x="42" y="21" width="18" height="3" rx="1.5" ry="1.5" 
          fill="url(#metalGradient)" stroke="#444" stroke-width="0.8" />
    
    <!-- Barrel Attachment -->
    <rect x="38" y="14" width="6" height="12" rx="1" ry="1" 
          fill="url(#darkMetal)" stroke="#222" stroke-width="0.8" />
    <circle cx="41" cy="17.5" r="1" fill="#222" />
    <circle cx="41" cy="22.5" r="1" fill="#222" />
    
    <!-- Cooling Vents -->
    <rect x="30" y="12" width="6" height="2" rx="1" ry="1" fill="#222" />
    <rect x="28" y="12.5" width="10" height="1" rx="0.5" ry="0.5" fill="#111" />
    <rect x="30" y="24" width="6" height="2" rx="1" ry="1" fill="#222" />
    <rect x="28" y="24.5" width="10" height="1" rx="0.5" ry="0.5" fill="#111" />
    
    <!-- Energy Chamber -->
    <circle cx="34" cy="19" r="3" fill="url(#blueGlow)" stroke="#444" stroke-width="0.5" />
    <circle cx="34" cy="19" r="2" fill="#fff" opacity="0.4" />
    
    <!-- Warning Markings -->
    <rect x="20" y="15" width="6" height="1" fill="#ff0" />
    <rect x="20" y="16.5" width="6" height="1" fill="#000" />
    <rect x="20" y="18" width="6" height="1" fill="#ff0" />
    <rect x="20" y="19.5" width="6" height="1" fill="#000" />
    <rect x="20" y="21" width="6" height="1" fill="#ff0" />
    
    <!-- Tech Details -->
    <circle cx="44" cy="14" r="1" fill="#28c" stroke="#222" stroke-width="0.3" />
    <circle cx="48" cy="14" r="1" fill="#28c" stroke="#222" stroke-width="0.3" />
    <circle cx="52" cy="14" r="1" fill="#28c" stroke="#222" stroke-width="0.3" />
    <circle cx="56" cy="14" r="1" fill="#28c" stroke="#222" stroke-width="0.3" />
    <circle cx="44" cy="26" r="1" fill="#28c" stroke="#222" stroke-width="0.3" />
    <circle cx="48" cy="26" r="1" fill="#28c" stroke="#222" stroke-width="0.3" />
    <circle cx="52" cy="26" r="1" fill="#28c" stroke="#222" stroke-width="0.3" />
    <circle cx="56" cy="26" r="1" fill="#28c" stroke="#222" stroke-width="0.3" />
</svg> 