<?xml version="1.0" encoding="UTF-8"?>
<svg xmlns="http://www.w3.org/2000/svg" viewBox="0 0 48 48">
    <defs>
        <radialGradient id="healthGlow" cx="50%" cy="50%" r="50%">
            <stop offset="0%" style="stop-color:#f88;stop-opacity:1" />
            <stop offset="50%" style="stop-color:#e44;stop-opacity:1" />
            <stop offset="100%" style="stop-color:#c00;stop-opacity:1" />
        </radialGradient>
        
        <linearGradient id="metalGradient" x1="0%" y1="0%" x2="100%" y2="100%">
            <stop offset="0%" style="stop-color:#ccc;stop-opacity:1" />
            <stop offset="40%" style="stop-color:#aaa;stop-opacity:1" />
            <stop offset="60%" style="stop-color:#999;stop-opacity:1" />
            <stop offset="100%" style="stop-color:#888;stop-opacity:1" />
        </linearGradient>
        
        <filter id="glow" x="-30%" y="-30%" width="160%" height="160%">
            <feGaussianBlur stdDeviation="2" result="blur" />
            <feComposite in="SourceGraphic" in2="blur" operator="over" />
        </filter>
        
        <filter id="shadow" x="-20%" y="-20%" width="140%" height="140%">
            <feDropShadow dx="2" dy="2" stdDeviation="1.5" flood-color="#000" flood-opacity="0.6"/>
        </filter>
    </defs>
    
    <!-- Base Ground Circle -->
    <ellipse cx="24" cy="40" rx="12" ry="4" fill="#555" opacity="0.6" />
    
    <!-- Main Metal Case --> 
    <rect x="16" y="10" width="16" height="28" rx="2" ry="2" 
          fill="url(#metalGradient)" stroke="#444" stroke-width="1" filter="url(#shadow)" />
    
    <!-- Top Cap -->
    <rect x="18" y="8" width="12" height="4" rx="1" ry="1" 
          fill="#999" stroke="#444" stroke-width="0.8" />
    <line x1="21" y1="10" x2="27" y2="10" stroke="#666" stroke-width="1" />
    
    <!-- Bottom Cap -->
    <rect x="18" y="36" width="12" height="2" rx="1" ry="1" 
          fill="#777" stroke="#444" stroke-width="0.8" />
    
    <!-- Red Cross Symbol -->
    <rect x="20" y="16" width="8" height="16" fill="url(#healthGlow)" />
    <rect x="16" y="20" width="16" height="8" fill="url(#healthGlow)" />
    
    <!-- Rivets -->
    <circle cx="18" cy="14" r="1" fill="#777" stroke="#444" stroke-width="0.5" />
    <circle cx="30" cy="14" r="1" fill="#777" stroke="#444" stroke-width="0.5" />
    <circle cx="18" cy="34" r="1" fill="#777" stroke="#444" stroke-width="0.5" />
    <circle cx="30" cy="34" r="1" fill="#777" stroke="#444" stroke-width="0.5" />
    
    <!-- Warning Stripes -->
    <rect x="16" y="16" width="3" height="1.5" fill="#000" />
    <rect x="16" y="19" width="3" height="1.5" fill="#ff0" />
    <rect x="16" y="22" width="3" height="1.5" fill="#000" />
    <rect x="16" y="25" width="3" height="1.5" fill="#ff0" />
    <rect x="16" y="28" width="3" height="1.5" fill="#000" />
    <rect x="16" y="31" width="3" height="1.5" fill="#ff0" />
    
    <rect x="29" y="16" width="3" height="1.5" fill="#000" />
    <rect x="29" y="19" width="3" height="1.5" fill="#ff0" />
    <rect x="29" y="22" width="3" height="1.5" fill="#000" />
    <rect x="29" y="25" width="3" height="1.5" fill="#ff0" />
    <rect x="29" y="28" width="3" height="1.5" fill="#000" />
    <rect x="29" y="31" width="3" height="1.5" fill="#ff0" />
    
    <!-- Tech Details -->
    <rect x="21" y="12" width="6" height="2" rx="0.5" ry="0.5" fill="#333" />
    <rect x="22" y="12.5" width="4" height="1" fill="#28c" />
    
    <!-- Small Accessory Container -->
    <rect x="11" y="20" width="4" height="8" rx="1" ry="1"
          fill="url(#metalGradient)" stroke="#444" stroke-width="0.8" />
    <rect x="12" y="22" width="2" height="4" fill="#28c" />
    <circle cx="13" cy="21" r="0.6" fill="#c00" />
    
    <!-- Glow Effect -->
    <circle cx="24" cy="24" r="14" fill="url(#healthGlow)" opacity="0.2" filter="url(#glow)" />
</svg> 