<?xml version="1.0" encoding="UTF-8"?>
<svg xmlns="http://www.w3.org/2000/svg" viewBox="0 0 64 32">
    <defs>
        <linearGradient id="metalGradient" x1="0%" y1="0%" x2="100%" y2="100%">
            <stop offset="0%" style="stop-color:#ccc;stop-opacity:1" />
            <stop offset="40%" style="stop-color:#aaa;stop-opacity:1" />
            <stop offset="60%" style="stop-color:#999;stop-opacity:1" />
            <stop offset="100%" style="stop-color:#888;stop-opacity:1" />
        </linearGradient>
        
        <linearGradient id="darkMetal" x1="0%" y1="0%" x2="100%" y2="100%">
            <stop offset="0%" style="stop-color:#777;stop-opacity:1" />
            <stop offset="50%" style="stop-color:#555;stop-opacity:1" />
            <stop offset="100%" style="stop-color:#333;stop-opacity:1" />
        </linearGradient>
        
        <linearGradient id="energyGlow" x1="0%" y1="0%" x2="100%" y2="100%">
            <stop offset="0%" style="stop-color:#fb5;stop-opacity:1" />
            <stop offset="50%" style="stop-color:#c71;stop-opacity:1" />
            <stop offset="100%" style="stop-color:#a50;stop-opacity:1" />
        </linearGradient>
        
        <filter id="shadow" x="-10%" y="-10%" width="120%" height="120%">
            <feDropShadow dx="1" dy="1" stdDeviation="1" flood-color="#000" flood-opacity="0.6"/>
        </filter>
    </defs>
    
    <!-- Handle -->
    <rect x="4" y="13" width="10" height="15" rx="1" ry="1" 
          fill="url(#darkMetal)" stroke="#222" stroke-width="0.8" filter="url(#shadow)" />
    <rect x="6" y="16" width="6" height="9" rx="1" ry="1" fill="#444" stroke="#222" stroke-width="0.5" />
    
    <!-- Trigger Guard -->
    <path d="M14,19 C14,15 14,15 18,15 L18,26 L14,26 Z" 
          fill="url(#darkMetal)" stroke="#222" stroke-width="0.8" />
    
    <!-- Trigger -->
    <rect x="15" y="18" width="2" height="6" rx="1" ry="1" fill="#222" />
    
    <!-- Main Body -->
    <rect x="18" y="12" width="22" height="14" rx="2" ry="2" 
          fill="url(#metalGradient)" stroke="#444" stroke-width="1" filter="url(#shadow)" />
    <rect x="18" y="14" width="22" height="10" fill="url(#darkMetal)" />
    
    <!-- Secondary Handle -->
    <rect x="26" y="26" width="10" height="3" rx="1" ry="1"
          fill="url(#darkMetal)" stroke="#222" stroke-width="0.8" />
    <rect x="28" y="26" width="6" height="1.5" rx="0.5" ry="0.5" fill="#444" />
    
    <!-- Heavy Barrel -->
    <rect x="40" y="12" width="20" height="14" rx="2" ry="7" 
          fill="url(#metalGradient)" stroke="#444" stroke-width="1" filter="url(#shadow)" />
    <ellipse cx="40" cy="19" rx="2" ry="7" fill="url(#metalGradient)" stroke="#444" stroke-width="1" />
    
    <!-- Barrel Interior -->
    <ellipse cx="60" cy="19" rx="3" ry="4" fill="#222" />
    <ellipse cx="60" cy="19" rx="1.5" ry="2" fill="url(#energyGlow)" opacity="0.8" />
    
    <!-- Barrel Rings -->
    <rect x="43" y="12" width="2" height="14" fill="none" stroke="#444" stroke-width="1" />
    <rect x="48" y="12" width="2" height="14" fill="none" stroke="#444" stroke-width="1" />
    <rect x="53" y="12" width="2" height="14" fill="none" stroke="#444" stroke-width="1" />
    
    <!-- Ammo Chamber -->
    <rect x="30" y="8" width="12" height="4" rx="1" ry="1" 
          fill="url(#metalGradient)" stroke="#444" stroke-width="0.8" />
    <rect x="32" y="8" width="8" height="2" fill="url(#energyGlow)" opacity="0.6" />
    
    <!-- Power Cell -->
    <rect x="22" y="7" width="6" height="5" rx="1" ry="1" 
          fill="url(#darkMetal)" stroke="#222" stroke-width="0.8" />
    <rect x="23" y="8" width="4" height="3" fill="url(#energyGlow)" opacity="0.8" />
    
    <!-- Cooling Fins -->
    <rect x="18" y="9" width="2" height="3" fill="#555" stroke="#222" stroke-width="0.3" />
    <rect x="18" y="26" width="2" height="3" fill="#555" stroke="#222" stroke-width="0.3" />
    <rect x="20" y="9" width="2" height="3" fill="#666" stroke="#222" stroke-width="0.3" />
    <rect x="20" y="26" width="2" height="3" fill="#666" stroke="#222" stroke-width="0.3" />
    
    <!-- Warning Markings -->
    <rect x="34" y="15" width="8" height="1.5" fill="#ff0" />
    <rect x="34" y="17.5" width="8" height="1.5" fill="#000" />
    <rect x="34" y="20" width="8" height="1.5" fill="#ff0" />
    <rect x="34" y="22.5" width="8" height="1.5" fill="#000" />
    
    <!-- Tech Details -->
    <circle cx="25" cy="19" r="2" fill="url(#energyGlow)" stroke="#222" stroke-width="0.5" />
    <circle cx="25" cy="19" r="1" fill="#fff" opacity="0.4" />
</svg> 