<?xml version="1.0" encoding="UTF-8"?>
<svg xmlns="http://www.w3.org/2000/svg" viewBox="-32 -32 64 64">
    <defs>
        <!-- Allied Colors -->
        <linearGradient id="alliedUniform" x1="0%" y1="0%" x2="100%" y2="100%">
            <stop offset="0%" style="stop-color:#39c;stop-opacity:1" />
            <stop offset="100%" style="stop-color:#17a;stop-opacity:1" />
        </linearGradient>
        
        <radialGradient id="face" cx="50%" cy="40%" r="60%">
            <stop offset="0%" style="stop-color:#fed;stop-opacity:1" />
            <stop offset="100%" style="stop-color:#db9;stop-opacity:1" />
        </radialGradient>
        
        <filter id="shadow" x="-0.2" y="-0.2" width="1.4" height="1.4">
            <feDropShadow dx="2" dy="2" stdDeviation="1" flood-color="#000" flood-opacity="0.5"/>
        </filter>

        <g id="engineer">
            <!-- Allied Uniform -->
            <rect x="-8" y="-8" width="16" height="16" rx="2" ry="4" 
                  fill="url(#alliedUniform)" stroke="#000" stroke-width="1" />
            
            <!-- Tool Belt -->
            <rect x="-8" y="4" width="16" height="3" 
                  fill="#654" stroke="#000" stroke-width="0.5" />
            <circle cx="0" cy="5.5" r="1" fill="#aa0" stroke="#000" stroke-width="0.3" />
            
            <!-- Helmet -->
            <path d="M-6,-16 C-6,-22 6,-22 6,-16 L6,-12 L-6,-12 Z" 
                  fill="#28b" stroke="#000" stroke-width="1" />
            <path d="M-2,-12 L2,-12 L2,-9 L-2,-9 Z" 
                  fill="#333" stroke="#000" stroke-width="0.5" />
                  
            <!-- Face -->
            <circle cx="0" cy="-5" r="5" fill="url(#face)" stroke="#000" stroke-width="0.8" />
            
            <!-- Eyes and Facial Features -->
            <circle cx="-2" cy="-5" r="1" fill="#000" />
            <circle cx="2" cy="-5" r="1" fill="#000" />
            <path d="M-2,-2 L2,-2" stroke="#000" stroke-width="0.8" />
            <path d="M-1,-6.5 L1,-6.5" stroke="#440" stroke-width="0.5" />
            
            <!-- Legs -->
            <rect x="-6" y="8" width="4" height="8" rx="1" ry="1" 
                  fill="#28b" stroke="#000" stroke-width="0.8" />
            <rect x="2" y="8" width="4" height="8" rx="1" ry="1" 
                  fill="#28b" stroke="#000" stroke-width="0.8" />
                  
            <!-- Boots -->
            <rect x="-6" y="14" width="4" height="2" rx="1" ry="1" 
                  fill="#222" stroke="#000" stroke-width="0.5" />
            <rect x="2" y="14" width="4" height="2" rx="1" ry="1" 
                  fill="#222" stroke="#000" stroke-width="0.5" />
                  
            <!-- Arms -->
            <rect x="-12" y="-5" width="4" height="10" rx="2" ry="2" 
                  fill="#28b" stroke="#000" stroke-width="0.8" />
            <rect x="8" y="-5" width="4" height="10" rx="2" ry="2" 
                  fill="#28b" stroke="#000" stroke-width="0.8" />
                  
            <!-- Gloves -->
            <rect x="-13" y="3" width="6" height="3" rx="1.5" ry="1.5" 
                  fill="#444" stroke="#000" stroke-width="0.5" />
            <rect x="7" y="3" width="6" height="3" rx="1.5" ry="1.5" 
                  fill="#444" stroke="#000" stroke-width="0.5" />
                  
            <!-- Engineer's Tool -->
            <path d="M9,3 L14,-2 L16,0 L11,5" fill="#aaa" stroke="#000" stroke-width="0.5" />
            <circle cx="15" cy="-1" r="1" fill="#ff0" stroke="#000" stroke-width="0.3" />
            
            <!-- Allied Insignia -->
            <path d="M0,-12 L2,-10 L0,-8 L-2,-10 Z" fill="#ff0" stroke="#000" stroke-width="0.3" />
        </g>
    </defs>
    
    <!-- Place the engineer for preview -->
    <use href="#engineer" filter="url(#shadow)" />
</svg>