<?xml version="1.0" encoding="UTF-8"?>
<svg xmlns="http://www.w3.org/2000/svg" width="96" height="96" viewBox="0 0 96 96">
    <defs>
        <!-- Grass base pattern -->
        <pattern id="grassPattern" patternUnits="userSpaceOnUse" width="4" height="4">
            <path d="M0,0 L1,1 M2,2 L3,3 M0,3 L1,2 M3,0 L2,1" stroke="#3a5" stroke-width="0.5" opacity="0.3"/>
        </pattern>
        
        <!-- Dirt pattern -->
        <pattern id="dirtPattern" patternUnits="userSpaceOnUse" width="4" height="4">
            <path d="M1,1 L2,2 M3,1 L2,0 M0,2 L1,3" stroke="#963" stroke-width="0.5" opacity="0.3"/>
        </pattern>
        
        <!-- Stone pattern -->
        <pattern id="stonePattern" patternUnits="userSpaceOnUse" width="8" height="8">
            <path d="M2,2 L6,2 L6,6 L2,6 Z" stroke="#888" stroke-width="0.5" fill="none"/>
            <path d="M0,0 L2,0 L0,2 Z" stroke="#888" stroke-width="0.3" fill="none"/>
            <path d="M8,8 L6,8 L8,6 Z" stroke="#888" stroke-width="0.3" fill="none"/>
        </pattern>
    </defs>
    
    <!-- Tile 0: Base Grass -->
    <rect x="0" y="0" width="32" height="32" fill="#4a6" stroke="#395" stroke-width="0.5"/>
    <rect x="0" y="0" width="32" height="32" fill="url(#grassPattern)"/>
    
    <!-- Tile 1: Grass Variation 1 -->
    <rect x="32" y="0" width="32" height="32" fill="#5b7" stroke="#395" stroke-width="0.5"/>
    <rect x="32" y="0" width="32" height="32" fill="url(#grassPattern)"/>
    <ellipse cx="48" cy="16" rx="6" ry="4" fill="#395" opacity="0.3"/>
    
    <!-- Tile 2: Grass Variation 2 -->
    <rect x="64" y="0" width="32" height="32" fill="#4a6" stroke="#395" stroke-width="0.5"/>
    <rect x="64" y="0" width="32" height="32" fill="url(#grassPattern)"/>
    <path d="M68,16 L74,12 M76,18 L72,24 M82,14 L78,20" stroke="#395" stroke-width="1" stroke-linecap="round"/>
    
    <!-- Tile 3: Dirt Path -->
    <rect x="0" y="32" width="32" height="32" fill="#b83" stroke="#963" stroke-width="0.5"/>
    <rect x="0" y="32" width="32" height="32" fill="url(#dirtPattern)"/>
    
    <!-- Tile 4: Dirt/Grass Transition -->
    <rect x="32" y="32" width="32" height="32" fill="#4a6" stroke="#395" stroke-width="0.5"/>
    <path d="M32,32 L64,64 L32,64 Z" fill="#b83"/>
    <path d="M32,32 L64,64 L32,64 Z" fill="url(#dirtPattern)"/>
    <path d="M32,32 L64,32 L64,64 Z" fill="url(#grassPattern)"/>
    
    <!-- Tile 5: Rocky Ground -->
    <rect x="64" y="32" width="32" height="32" fill="#999" stroke="#777" stroke-width="0.5"/>
    <rect x="64" y="32" width="32" height="32" fill="url(#stonePattern)"/>
    <circle cx="75" cy="43" r="4" fill="#888" stroke="#777" stroke-width="0.5"/>
    <circle cx="85" cy="53" r="3" fill="#888" stroke="#777" stroke-width="0.5"/>
    
    <!-- Tile 6: Water -->
    <rect x="0" y="64" width="32" height="32" fill="#39c" stroke="#27a" stroke-width="0.5"/>
    <path d="M4,68 Q8,66 12,68 Q16,70 20,68 Q24,66 28,68 M4,78 Q8,76 12,78 Q16,80 20,78 Q24,76 28,78 M4,88 Q8,86 12,88 Q16,90 20,88 Q24,86 28,88" 
          stroke="#7cf" stroke-width="1" fill="none" opacity="0.6"/>
    
    <!-- Tile 7: Sand -->
    <rect x="32" y="64" width="32" height="32" fill="#db6" stroke="#ca5" stroke-width="0.5"/>
    <path d="M36,68 L38,70 M42,74 L44,76 M48,68 L50,70 M54,72 L56,74 M40,80 L42,82 M52,84 L54,86 M58,78 L60,80" 
          stroke="#ca5" stroke-width="0.7" stroke-linecap="round"/>
    
    <!-- Tile 8: Buildable Platform -->
    <rect x="64" y="64" width="32" height="32" fill="#777" stroke="#555" stroke-width="1"/>
    <path d="M64,64 L96,64 L96,96 L64,96 Z" fill="none" stroke="#999" stroke-width="0.5" stroke-dasharray="2,2"/>
    <rect x="69" y="69" width="22" height="22" fill="none" stroke="#999" stroke-width="0.7"/>
    <path d="M69,69 L91,91 M69,91 L91,69" stroke="#999" stroke-width="0.5" opacity="0.5"/>
</svg> 