<?xml version="1.0" encoding="UTF-8"?>
<svg xmlns="http://www.w3.org/2000/svg" viewBox="0 0 64 64">
    <defs>
        <!-- Metal Gradients -->
        <linearGradient id="metalBase" x1="0%" y1="0%" x2="100%" y2="100%">
            <stop offset="0%" style="stop-color:#933;stop-opacity:1" />
            <stop offset="40%" style="stop-color:#c44;stop-opacity:1" />
            <stop offset="60%" style="stop-color:#a33;stop-opacity:1" />
            <stop offset="100%" style="stop-color:#622;stop-opacity:1" />
        </linearGradient>
        
        <radialGradient id="energyCore" cx="50%" cy="50%" r="50%">
            <stop offset="0%" style="stop-color:#fff;stop-opacity:1" />
            <stop offset="20%" style="stop-color:#ccf;stop-opacity:1" />
            <stop offset="60%" style="stop-color:#99f;stop-opacity:1" />
            <stop offset="100%" style="stop-color:#66f;stop-opacity:1" />
        </radialGradient>
        
        <filter id="glow" x="-30%" y="-30%" width="160%" height="160%">
            <feGaussianBlur stdDeviation="2" result="blur" />
            <feComposite in="SourceGraphic" in2="blur" operator="over" />
        </filter>
        
        <filter id="lightning" x="-20%" y="-20%" width="140%" height="140%">
            <feTurbulence type="fractalNoise" baseFrequency="0.05" numOctaves="2" seed="5" />
            <feDisplacementMap in="SourceGraphic" scale="5" />
        </filter>

        <g id="area-tower">
            <!-- Industrial Base with Warning Stripes -->
            <path d="M32 48 L20 40 L20 28 L32 20 L44 28 L44 40 Z" 
                  fill="url(#metalBase)" stroke="#000" stroke-width="2" />
            
            <!-- Warning Stripes -->
            <path d="M26 42 L26 26 L38 26 L38 42 Z" fill="none" 
                  stroke="#ff0" stroke-width="1" stroke-dasharray="2 2" />
            
            <!-- Central Tesla Coil Structure -->
            <path d="M29 20 L29 12 L35 12 L35 20 Z" fill="#999" stroke="#000" stroke-width="1" />
            <rect x="28" y="11" width="8" height="2" fill="#777" stroke="#000" stroke-width="0.5" />
            
            <!-- Tesla Coil Sphere -->
            <circle cx="32" cy="28" r="7" fill="url(#energyCore)" 
                    stroke="#55f" stroke-width="1.5" filter="url(#glow)" />
            
            <!-- Electrical Discharge -->
            <path d="M32 21 L30 24 L34 26 L30 29 L36 32 L30 35 L32 38" 
                  fill="none" stroke="#fff" stroke-width="1.5" 
                  filter="url(#lightning)" opacity="0.8" />
            
            <!-- Metal Rivets -->
            <circle cx="22" cy="30" r="1" fill="#ccc" />
            <circle cx="22" cy="38" r="1" fill="#ccc" />
            <circle cx="42" cy="30" r="1" fill="#ccc" />
            <circle cx="42" cy="38" r="1" fill="#ccc" />
            
            <!-- Energy Field Indication -->
            <circle cx="32" cy="28" r="13" fill="none" 
                    stroke="#99f" stroke-width="0.5" stroke-dasharray="1 2" />
            <circle cx="32" cy="28" r="16" fill="none" 
                    stroke="#77f" stroke-width="0.3" stroke-dasharray="1 3" />
            
            <!-- Power Conduits -->
            <path d="M24 35 L28 31 M40 35 L36 31" stroke="#444" 
                  stroke-width="1.5" stroke-linecap="round" />
        </g>
    </defs>

    <!-- Place the tower for preview -->
    <use href="#area-tower" x="0" y="0" />
</svg>