<?xml version="1.0" encoding="UTF-8"?>
<svg xmlns="http://www.w3.org/2000/svg" viewBox="-16 -16 32 32">
    <defs>
        <!-- Foliage Gradients -->
        <radialGradient id="foliageGreen" cx="50%" cy="50%" r="60%">
            <stop offset="0%" style="stop-color:#3a5;stop-opacity:1" />
            <stop offset="70%" style="stop-color:#273;stop-opacity:1" />
            <stop offset="100%" style="stop-color:#152;stop-opacity:1" />
        </radialGradient>
        
        <filter id="shadow" x="-20%" y="-20%" width="140%" height="140%">
            <feDropShadow dx="1" dy="2" stdDeviation="1" flood-color="#000" flood-opacity="0.5"/>
        </filter>

        <g id="bush">
            <!-- Base Ground -->
            <ellipse cx="0" cy="12" rx="12" ry="4" fill="#554" stroke="#332" stroke-width="0.5" />
            
            <!-- Main Bush Clumps -->
            <path d="M-10,10 C-12,5 -10,0 -4,2 C-6,-3 0,-5 2,0 C6,-4 10,-2 8,4 C12,2 14,6 10,10 Z" 
                  fill="url(#foliageGreen)" stroke="#152" stroke-width="1" filter="url(#shadow)" />
            
            <!-- Camo Pattern Patches -->
            <path d="M-6,5 C-4,3 -2,5 -3,7 C-4,8 -7,7 -6,5 Z" fill="#3a5" stroke="#152" stroke-width="0.5" />
            <path d="M2,3 C4,1 6,3 5,5 C4,6 1,5 2,3 Z" fill="#273" stroke="#152" stroke-width="0.5" />
            <path d="M-2,-1 C0,-3 2,-1 1,1 C0,2 -3,1 -2,-1 Z" fill="#152" stroke="#152" stroke-width="0.5" />
            <path d="M3,8 C5,6 7,8 6,10 C5,11 2,10 3,8 Z" fill="#3a5" stroke="#152" stroke-width="0.5" />
            
            <!-- Highlight Details -->
            <path d="M-7,6 L-5,4 M0,1 L2,-1 M5,5 L7,3 M0,7 L2,5" 
                  stroke="#4b6" stroke-width="0.5" stroke-linecap="round" />
                  
            <!-- Texture Details -->
            <path d="M-8,8 C-6,7 -4,8 -2,7 C0,6 2,7 4,6 C6,5 8,6 9,8" 
                  fill="none" stroke="#152" stroke-width="0.5" stroke-dasharray="1 1" />
        </g>
    </defs>
    
    <!-- Place the bush -->
    <use href="#bush" />
</svg> 