<?xml version="1.0" encoding="UTF-8"?>
<svg xmlns="http://www.w3.org/2000/svg" viewBox="-24 -48 48 64">
    <defs>
        <!-- Gradients -->
        <linearGradient id="trunkGradient" x1="0%" y1="0%" x2="100%" y2="0%">
            <stop offset="0%" style="stop-color:#764;stop-opacity:1" />
            <stop offset="40%" style="stop-color:#985;stop-opacity:1" />
            <stop offset="100%" style="stop-color:#653;stop-opacity:1" />
        </linearGradient>
        
        <radialGradient id="foliageGradient" cx="50%" cy="40%" r="60%">
            <stop offset="0%" style="stop-color:#3a5;stop-opacity:1" />
            <stop offset="80%" style="stop-color:#273;stop-opacity:1" />
            <stop offset="100%" style="stop-color:#152;stop-opacity:1" />
        </radialGradient>
        
        <filter id="shadow" x="-20%" y="-20%" width="140%" height="140%">
            <feDropShadow dx="2" dy="3" stdDeviation="2" flood-color="#000" flood-opacity="0.6"/>
        </filter>

        <g id="tree">
            <!-- Ground/Base -->
            <ellipse cx="0" cy="14" rx="16" ry="4" fill="#554" stroke="#332" stroke-width="0.5" />
            
            <!-- Trunk -->
            <path d="M-4,14 L-5,0 L-2,-10 L0,-12 L2,-10 L5,0 L4,14 Z" 
                  fill="url(#trunkGradient)" stroke="#542" stroke-width="1" />
            
            <!-- Bark Texture -->
            <path d="M-3,10 L-2,10 M-4,5 L-3,5 M-3,0 L-2,0 M-2,-5 L-1,-5" 
                  stroke="#432" stroke-width="0.7" />
            <path d="M3,8 L2,8 M4,3 L3,3 M3,-2 L2,-2 M2,-7 L1,-7" 
                  stroke="#432" stroke-width="0.7" />
                  
            <!-- Foliage Groups -->
            <ellipse cx="0" cy="-22" rx="16" ry="14" 
                     fill="url(#foliageGradient)" stroke="#152" stroke-width="1" filter="url(#shadow)" />
            <ellipse cx="-6" cy="-34" rx="10" ry="8" 
                     fill="url(#foliageGradient)" stroke="#152" stroke-width="1" filter="url(#shadow)" />
            <ellipse cx="8" cy="-32" rx="12" ry="10" 
                     fill="url(#foliageGradient)" stroke="#152" stroke-width="1" filter="url(#shadow)" />
            
            <!-- Camo Pattern Details -->
            <path d="M-10,-20 C-7,-23 -4,-20 -5,-17 C-7,-15 -12,-18 -10,-20 Z" 
                  fill="#3a5" stroke="#152" stroke-width="0.5" />
            <path d="M5,-26 C8,-29 11,-26 10,-23 C8,-21 3,-24 5,-26 Z" 
                  fill="#273" stroke="#152" stroke-width="0.5" />
            <path d="M-4,-34 C-1,-37 2,-34 1,-31 C-1,-29 -6,-32 -4,-34 Z" 
                  fill="#3a5" stroke="#152" stroke-width="0.5" />
            <path d="M10,-30 C13,-33 16,-30 15,-27 C13,-25 8,-28 10,-30 Z" 
                  fill="#152" stroke="#152" stroke-width="0.5" />
            
            <!-- Highlight Edges -->
            <path d="M-10,-28 C-5,-32 0,-33 5,-32 C10,-31 15,-28 17,-24" 
                  fill="none" stroke="#4b6" stroke-width="0.5" />
            <path d="M-14,-20 C-10,-22 -5,-23 0,-22 C5,-21 10,-18 12,-14" 
                  fill="none" stroke="#4b6" stroke-width="0.5" />
                  
            <!-- Damaged/War Zone Detail (optional) -->
            <path d="M2,-26 L4,-24 M6,-27 L8,-25 M-2,-30 L0,-28" 
                  stroke="#421" stroke-width="0.7" stroke-linecap="round" />
        </g>
    </defs>
    
    <!-- Place the tree -->
    <use href="#tree" />
</svg> 