<svg xmlns="http://www.w3.org/2000/svg" viewBox="-32 -32 64 64">
    <defs>
        <!-- Red Background Gradient -->
        <radialGradient id="damageGradient" cx="50%" cy="50%" r="50%" fx="50%" fy="50%">
            <stop offset="0%" style="stop-color:#ff5533;stop-opacity:1" />
            <stop offset="70%" style="stop-color:#cc3311;stop-opacity:1" />
            <stop offset="100%" style="stop-color:#aa2200;stop-opacity:1" />
        </radialGradient>

        <!-- Power-up Glow -->
        <filter id="powerupGlow" x="-0.2" y="-0.2" width="1.4" height="1.4">
            <feGaussianBlur stdDeviation="2" result="blur" />
            <feFlood flood-color="#ff5533" flood-opacity="0.7" result="glow" />
            <feComposite in="glow" in2="blur" operator="in" result="softGlow" />
            <feComposite in="SourceGraphic" in2="softGlow" operator="over" />
        </filter>

        <!-- Highlight Gleam -->
        <linearGradient id="highlightGleam" x1="0%" y1="0%" x2="100%" y2="100%">
            <stop offset="0%" style="stop-color:#fff;stop-opacity:0.9" />
            <stop offset="100%" style="stop-color:#fff;stop-opacity:0" />
        </linearGradient>
    </defs>

    <!-- Damage Power-up -->
    <g id="damagePowerup" filter="url(#powerupGlow)">
        <!-- Base circle -->
        <circle cx="0" cy="0" r="16" fill="url(#damageGradient)" stroke="#aa2200" stroke-width="2" />

        <!-- Explosion Symbol -->
        <path d="M0,-10 L2,-5 L8,-6 L5,-2 L10,4 L3,0 L-2,7 L-3,0 L-9,2 L-4,-3 Z" fill="#fff" stroke="#cc3311"
            stroke-width="1" />

        <!-- Damage Spikes -->
        <path d="M-16,0 L-12,0 M12,0 L16,0 M0,-16 L0,-12 M0,12 L0,16" stroke="#ff8866" stroke-width="2"
            stroke-linecap="round" />
        <path d="M-12,-12 L-9,-9 M12,-12 L9,-9 M-12,12 L-9,9 M12,12 L9,9" stroke="#ff8866" stroke-width="2"
            stroke-linecap="round" />

        <!-- Damage Fragments -->
        <circle cx="-6" cy="10" r="1.5" fill="#fff" />
        <circle cx="10" cy="-8" r="1.5" fill="#fff" />
        <circle cx="9" cy="6" r="1" fill="#fff" />
        <circle cx="-10" cy="-7" r="1" fill="#fff" />
        <path d="M-8,-5 L-6,-7 M7,8 L9,10 M11,-2 L13,-4" stroke="#fff" stroke-width="1" />

        <!-- Highlight gleam -->
        <path d="M-8,-8 L-2,-2" stroke="url(#highlightGleam)" stroke-width="3" stroke-linecap="round" />

        <!-- Orbital ring -->
        <circle cx="0" cy="0" r="20" fill="none" stroke="#ff5533" stroke-width="0.5" stroke-dasharray="2 3"
            stroke-opacity="0.7" />
    </g>
</svg>