<svg xmlns="http://www.w3.org/2000/svg" viewBox="-32 -32 64 64">
    <defs>
        <!-- White/Silver Background Gradient -->
        <radialGradient id="defaultGradient" cx="50%" cy="50%" r="50%" fx="50%" fy="50%">
            <stop offset="0%" style="stop-color:#ffffff;stop-opacity:1" />
            <stop offset="70%" style="stop-color:#dddddd;stop-opacity:1" />
            <stop offset="100%" style="stop-color:#aaaaaa;stop-opacity:1" />
        </radialGradient>

        <!-- Power-up Glow -->
        <filter id="powerupGlow" x="-0.2" y="-0.2" width="1.4" height="1.4">
            <feGaussianBlur stdDeviation="2" result="blur" />
            <feFlood flood-color="#ffffff" flood-opacity="0.7" result="glow" />
            <feComposite in="glow" in2="blur" operator="in" result="softGlow" />
            <feComposite in="SourceGraphic" in2="softGlow" operator="over" />
        </filter>

        <!-- Highlight Gleam -->
        <linearGradient id="highlightGleam" x1="0%" y1="0%" x2="100%" y2="100%">
            <stop offset="0%" style="stop-color:#fff;stop-opacity:0.9" />
            <stop offset="100%" style="stop-color:#fff;stop-opacity:0" />
        </linearGradient>

        <!-- Rotation Animation -->
        <animateTransform id="rotateAnimation" attributeName="transform" attributeType="XML" type="rotate" from="0 0 0"
            to="360 0 0" dur="8s" repeatCount="indefinite" />
    </defs>

    <!-- Default Power-up -->
    <g id="defaultPowerup" filter="url(#powerupGlow)">
        <!-- Base circle -->
        <circle cx="0" cy="0" r="16" fill="url(#defaultGradient)" stroke="#aaaaaa" stroke-width="2" />

        <!-- Question Mark Symbol -->
        <path d="M-5,-2 C-5,-6 -3,-8 0,-8 C3,-8 5,-6 5,-2 C5,2 0,2 0,5 M0,7 L0,9" stroke="#666" stroke-width="3"
            fill="none" stroke-linecap="round" />

        <!-- Mystery Sparkles -->
        <path d="M-10,-10 L-8,-8 M10,-10 L8,-8 M-10,10 L-8,8 M10,10 L8,8" stroke="#88aaff" stroke-width="1" />
        <path d="M-12,-4 L-9,-4 M-12,0 L-8,0 M-12,4 L-9,4" stroke="#ff88aa" stroke-width="1" />
        <path d="M12,-4 L9,-4 M12,0 L8,0 M12,4 L9,4" stroke="#88ffaa" stroke-width="1" />

        <!-- Mystery Particles -->
        <circle cx="-8" cy="-4" r="1" fill="#66ccff" />
        <circle cx="8" cy="-6" r="1" fill="#ffaa66" />
        <circle cx="-6" cy="8" r="1" fill="#66ffaa" />
        <circle cx="4" cy="7" r="1" fill="#ff66cc" />

        <!-- Orbiting Stars -->
        <g>
            <path d="M-14,0 L-12,0 M-13,-1 L-13,1" stroke="#ffdd33" stroke-width="1" />
            <animateTransform attributeName="transform" attributeType="XML" type="rotate" from="0 0 0" to="360 0 0"
                dur="5s" repeatCount="indefinite" />
        </g>
        <g>
            <path d="M14,0 L16,0 M15,-1 L15,1" stroke="#33ddff" stroke-width="1" />
            <animateTransform attributeName="transform" attributeType="XML" type="rotate" from="180 0 0" to="-180 0 0"
                dur="7s" repeatCount="indefinite" />
        </g>

        <!-- Highlight gleam -->
        <path d="M-8,-8 L-2,-2" stroke="url(#highlightGleam)" stroke-width="3" stroke-linecap="round" />

        <!-- Orbital rings -->
        <circle cx="0" cy="0" r="20" fill="none" stroke="#cccccc" stroke-width="0.5" stroke-dasharray="2 3"
            stroke-opacity="0.7" />
        <circle cx="0" cy="0" r="22" fill="none" stroke="#cccccc" stroke-width="0.3" stroke-dasharray="1 4"
            stroke-opacity="0.5">
            <animateTransform attributeName="transform" attributeType="XML" type="rotate" from="0 0 0" to="360 0 0"
                dur="15s" repeatCount="indefinite" />
        </circle>
    </g>
</svg>