<svg xmlns="http://www.w3.org/2000/svg" viewBox="-32 -32 64 64">
    <defs>
        <!-- Purple Background Gradient -->
        <radialGradient id="rangeGradient" cx="50%" cy="50%" r="50%" fx="50%" fy="50%">
            <stop offset="0%" style="stop-color:#cc66ff;stop-opacity:1" />
            <stop offset="70%" style="stop-color:#9933cc;stop-opacity:1" />
            <stop offset="100%" style="stop-color:#7722aa;stop-opacity:1" />
        </radialGradient>
        
        <!-- Power-up Glow -->
        <filter id="powerupGlow" x="-0.2" y="-0.2" width="1.4" height="1.4">
            <feGaussianBlur stdDeviation="2" result="blur" />
            <feFlood flood-color="#cc66ff" flood-opacity="0.7" result="glow" />
            <feComposite in="glow" in2="blur" operator="in" result="softGlow" />
            <feComposite in="SourceGraphic" in2="softGlow" operator="over" />
        </filter>
        
        <!-- Highlight Gleam -->
        <linearGradient id="highlightGleam" x1="0%" y1="0%" x2="100%" y2="100%">
            <stop offset="0%" style="stop-color:#fff;stop-opacity:0.9" />
            <stop offset="100%" style="stop-color:#fff;stop-opacity:0" />
        </linearGradient>
    </defs>
    
    <!-- Range Power-up -->
    <g id="rangePowerup" filter="url(#powerupGlow)">
        <!-- Base circle -->
        <circle cx="0" cy="0" r="16" fill="url(#rangeGradient)" stroke="#7722aa" stroke-width="2" />
        
        <!-- Range Target Symbol -->
        <circle cx="0" cy="0" r="8" fill="none" stroke="#fff" stroke-width="1.5" />
        <circle cx="0" cy="0" r="4" fill="none" stroke="#fff" stroke-width="1.5" />
        <circle cx="0" cy="0" r="1" fill="#fff" />
        
        <!-- Crosshair -->
        <path d="M0,-12 L0,-4 M0,4 L0,12 M-12,0 L-4,0 M4,0 L12,0" 
              stroke="#fff" stroke-width="1.5" />
        
        <!-- Range Indicators -->
        <path d="M-16,-16 L-12,-12 M16,-16 L12,-12 M-16,16 L-12,12 M16,16 L12,12" 
              stroke="#dd99ff" stroke-width="1.5" stroke-dasharray="2 2" />
        
        <!-- Arc Indicators -->
        <path d="M-9,0 A9,9 0 0,1 0,-9" stroke="#fff" stroke-width="0.8" stroke-dasharray="1 2" fill="none" />
        <path d="M0,9 A9,9 0 0,1 9,0" stroke="#fff" stroke-width="0.8" stroke-dasharray="1 2" fill="none" />
        
        <!-- Highlight gleam -->
        <path d="M-8,-8 L-2,-2" stroke="url(#highlightGleam)" stroke-width="3" stroke-linecap="round" />
        
        <!-- Orbital rings -->
        <circle cx="0" cy="0" r="20" fill="none" stroke="#cc66ff" stroke-width="0.5" stroke-dasharray="2 3" stroke-opacity="0.7" />
        <circle cx="0" cy="0" r="22" fill="none" stroke="#cc66ff" stroke-width="0.3" stroke-dasharray="1 4" stroke-opacity="0.5" />
    </g>
</svg>