<svg xmlns="http://www.w3.org/2000/svg" viewBox="-32 -32 64 64">
    <defs>
        <!-- Blue Background Gradient -->
        <radialGradient id="speedGradient" cx="50%" cy="50%" r="50%" fx="50%" fy="50%">
            <stop offset="0%" style="stop-color:#00ccff;stop-opacity:1" />
            <stop offset="70%" style="stop-color:#0099cc;stop-opacity:1" />
            <stop offset="100%" style="stop-color:#0077aa;stop-opacity:1" />
        </radialGradient>
        
        <!-- Power-up Glow -->
        <filter id="powerupGlow" x="-0.2" y="-0.2" width="1.4" height="1.4">
            <feGaussianBlur stdDeviation="2" result="blur" />
            <feFlood flood-color="#00ccff" flood-opacity="0.7" result="glow" />
            <feComposite in="glow" in2="blur" operator="in" result="softGlow" />
            <feComposite in="SourceGraphic" in2="softGlow" operator="over" />
        </filter>
        
        <!-- Highlight Gleam -->
        <linearGradient id="highlightGleam" x1="0%" y1="0%" x2="100%" y2="100%">
            <stop offset="0%" style="stop-color:#fff;stop-opacity:0.9" />
            <stop offset="100%" style="stop-color:#fff;stop-opacity:0" />
        </linearGradient>
    </defs>
    
    <!-- Speed Power-up -->
    <g id="speedPowerup" filter="url(#powerupGlow)">
        <!-- Base circle -->
        <circle cx="0" cy="0" r="16" fill="url(#speedGradient)" stroke="#0077aa" stroke-width="2" />
        
        <!-- Speed Lightning Bolt Symbol -->
        <path d="M0,-10 L-8,0 L-2,0 L-4,10 L8,-4 L2,-4 L6,-10 Z" 
              fill="#fff" stroke="#0099cc" stroke-width="1" />
        
        <!-- Speed Lines -->
        <path d="M-16,0 L-12,0 M12,0 L16,0 M0,-16 L0,-12 M0,12 L0,16" 
              stroke="#fff" stroke-width="2" stroke-linecap="round" />
        <path d="M-12,-12 L-9,-9 M12,-12 L9,-9 M-12,12 L-9,9 M12,12 L9,9" 
              stroke="#fff" stroke-width="2" stroke-linecap="round" />
        
        <!-- Speed Wind Effect -->
        <path d="M-14,-4 L-18,-4 M-14,0 L-20,0 M-14,4 L-18,4" 
              stroke="#fff" stroke-width="1.5" stroke-opacity="0.7" />
        <path d="M14,-4 L18,-4 M14,0 L20,0 M14,4 L18,4" 
              stroke="#fff" stroke-width="1.5" stroke-opacity="0.7" />
        
        <!-- Highlight gleam -->
        <path d="M-8,-8 L-2,-2" stroke="url(#highlightGleam)" stroke-width="3" stroke-linecap="round" />
        
        <!-- Orbital ring -->
        <circle cx="0" cy="0" r="20" fill="none" stroke="#00ccff" stroke-width="0.5" stroke-dasharray="2 3" stroke-opacity="0.7" />
    </g>
</svg>