<svg xmlns="http://www.w3.org/2000/svg" viewBox="-32 -32 64 64">
    <defs>
        <!-- Soviet Metal Gradients -->
        <linearGradient id="normalVehicleGradient" x1="0%" y1="0%" x2="100%" y2="100%">
            <stop offset="0%" style="stop-color:#a33;stop-opacity:1" />
            <stop offset="40%" style="stop-color:#c44;stop-opacity:1" />
            <stop offset="70%" style="stop-color:#922;stop-opacity:1" />
            <stop offset="100%" style="stop-color:#711;stop-opacity:1" />
        </linearGradient>

        <linearGradient id="wheelGradient" x1="0%" y1="0%" x2="0%" y2="100%">
            <stop offset="0%" style="stop-color:#666;stop-opacity:1" />
            <stop offset="50%" style="stop-color:#444;stop-opacity:1" />
            <stop offset="100%" style="stop-color:#222;stop-opacity:1" />
        </linearGradient>

        <filter id="shadow" x="-0.2" y="-0.2" width="1.4" height="1.4">
            <feDropShadow dx="2" dy="2" stdDeviation="1.5" flood-color="#000" flood-opacity="0.6" />
        </filter>
    </defs>

    <!-- Normal Enemy - Standard Soviet APC -->
    <g id="normalEnemy" filter="url(#shadow)">
        <!-- Wheels -->
        <circle cx="-14" cy="10" r="4" fill="url(#wheelGradient)" stroke="#000" stroke-width="1" />
        <circle cx="-4" cy="10" r="4" fill="url(#wheelGradient)" stroke="#000" stroke-width="1" />
        <circle cx="6" cy="10" r="4" fill="url(#wheelGradient)" stroke="#000" stroke-width="1" />
        <circle cx="16" cy="10" r="4" fill="url(#wheelGradient)" stroke="#000" stroke-width="1" />

        <!-- Wheel Centers -->
        <circle cx="-14" cy="10" r="1.5" fill="#111" stroke="#000" stroke-width="0.5" />
        <circle cx="-4" cy="10" r="1.5" fill="#111" stroke="#000" stroke-width="0.5" />
        <circle cx="6" cy="10" r="1.5" fill="#111" stroke="#000" stroke-width="0.5" />
        <circle cx="16" cy="10" r="1.5" fill="#111" stroke="#000" stroke-width="0.5" />

        <!-- Main Vehicle Body -->
        <path d="M-18 6 L18 6 L16 -4 L14 -10 L-14 -10 L-16 -4 Z" fill="url(#normalVehicleGradient)" stroke="#000"
            stroke-width="1.5" />

        <!-- Front Windshield -->
        <path d="M-10 -10 L10 -10 L8 -14 L-8 -14 Z" fill="#99f" stroke="#000" stroke-width="1" opacity="0.7" />

        <!-- Turret - Standard Size -->
        <circle cx="0" cy="-4" r="5" fill="#922" stroke="#000" stroke-width="1" />

        <!-- Main Gun -->
        <rect x="-1.5" y="-18" width="3" height="14" fill="#444" stroke="#000" stroke-width="0.5" />

        <!-- Soviet Star Symbol -->
        <path d="M0,-2 L1.5,0 L4,0.5 L2,2 L2.5,4.5 L0,3 L-2.5,4.5 L-2,2 L-4,0.5 L-1.5,0 Z" fill="#ff0" stroke="#000"
            stroke-width="0.5" />

        <!-- Warning Stripe -->
        <path d="M-13 0 L13 0" stroke="#ff0" stroke-width="1.5" stroke-dasharray="3 3" />

        <!-- Rivets -->
        <circle cx="-14" cy="-2" r="1" fill="#ccc" />
        <circle cx="14" cy="-2" r="1" fill="#ccc" />
        <circle cx="-10" cy="-8" r="1" fill="#ccc" />
        <circle cx="10" cy="-8" r="1" fill="#ccc" />

        <!-- Headlights -->
        <circle cx="-12" cy="-6" r="1.5" fill="#fa0" stroke="#000" stroke-width="0.5" />
        <circle cx="12" cy="-6" r="1.5" fill="#fa0" stroke="#000" stroke-width="0.5" />
        <circle cx="-12" cy="-6" r="0.75" fill="#ff6" />
        <circle cx="12" cy="-6" r="0.75" fill="#ff6" />

        <!-- Exhaust Pipe -->
        <rect x="-15" y="2" width="2" height="3" fill="#333" stroke="#000" stroke-width="0.5" />
        <path d="M-15 3 L-16 3" stroke="#999" stroke-width="0.5" />

        <!-- Radio Antenna -->
        <path d="M-10 -14 L-10 -20" stroke="#888" stroke-width="0.5" />

        <!-- Back Door/Ramp Outline -->
        <path d="M-14 2 L14 2 L14 6 L-14 6 Z" stroke="#000" stroke-width="0.5" fill="none" />
        <path d="M-10 2 L-10 6 M-5 2 L-5 6 M0 2 L0 6 M5 2 L5 6 M10 2 L10 6" stroke="#000" stroke-width="0.5"
            stroke-dasharray="1 1" />
    </g>
</svg>