<?xml version="1.0" encoding="UTF-8"?>
<svg xmlns="http://www.w3.org/2000/svg" viewBox="-32 -32 64 64">
    <defs>
        <!-- Soviet Metal Gradients -->
        <linearGradient id="sovietMetal" x1="0%" y1="0%" x2="100%" y2="100%">
            <stop offset="0%" style="stop-color:#a33;stop-opacity:1" />
            <stop offset="40%" style="stop-color:#c44;stop-opacity:1" />
            <stop offset="70%" style="stop-color:#922;stop-opacity:1" />
            <stop offset="100%" style="stop-color:#711;stop-opacity:1" />
        </linearGradient>
        
        <linearGradient id="tankTreads" x1="0%" y1="0%" x2="0%" y2="100%">
            <stop offset="0%" style="stop-color:#666;stop-opacity:1" />
            <stop offset="50%" style="stop-color:#444;stop-opacity:1" />
            <stop offset="100%" style="stop-color:#222;stop-opacity:1" />
        </linearGradient>
        
        <filter id="shadow" x="-0.2" y="-0.2" width="1.4" height="1.4">
            <feDropShadow dx="2" dy="2" stdDeviation="1.5" flood-color="#000" flood-opacity="0.6"/>
        </filter>

        <g id="enemy">
            <!-- Tank Treads -->
            <rect x="-18" y="8" width="36" height="8" rx="2" ry="2" 
                  fill="url(#tankTreads)" stroke="#000" stroke-width="1" />
            
            <!-- Tread Details -->
            <path d="M-16 12 L16 12" stroke="#000" stroke-width="0.5" />
            <path d="M-16 10 L16 10 M-16 14 L16 14" 
                  stroke="#000" stroke-width="0.5" stroke-dasharray="2 2" />
                  
            <!-- Main Tank Body -->
            <path d="M-16 8 L16 8 L14 -6 L-14 -6 Z" 
                  fill="url(#sovietMetal)" stroke="#000" stroke-width="1.5" />
                  
            <!-- Tank Turret -->
            <path d="M-10 -6 L10 -6 L8 -14 L-8 -14 Z" 
                  fill="#922" stroke="#000" stroke-width="1.5" />
                  
            <!-- Main Cannon -->
            <rect x="-2" y="-24" width="4" height="10" 
                  fill="#444" stroke="#000" stroke-width="1" />
                  
            <!-- Soviet Star Symbol -->
            <path d="M0,-10 L2,-6 L6,-5 L3,-2 L4,2 L0,0 L-4,2 L-3,-2 L-6,-5 L-2,-6 Z" 
                  fill="#ff0" stroke="#000" stroke-width="0.5" />
                  
            <!-- Warning Stripe -->
            <path d="M-12 2 L12 2" stroke="#ff0" stroke-width="2" stroke-dasharray="3 3" />
                  
            <!-- Rivets -->
            <circle cx="-12" cy="-2" r="1" fill="#ccc" />
            <circle cx="12" cy="-2" r="1" fill="#ccc" />
            <circle cx="-10" cy="-10" r="1" fill="#ccc" />
            <circle cx="10" cy="-10" r="1" fill="#ccc" />
            
            <!-- Tank Lights (Eyes) -->
            <circle cx="-8" cy="-4" r="2" fill="#fa0" stroke="#000" stroke-width="0.5" />
            <circle cx="8" cy="-4" r="2" fill="#fa0" stroke="#000" stroke-width="0.5" />
            <circle cx="-8" cy="-4" r="1" fill="#ff6" />
            <circle cx="8" cy="-4" r="1" fill="#ff6" />
            
            <!-- Exhaust Pipes -->
            <rect x="-14" y="2" width="3" height="4" fill="#333" stroke="#000" stroke-width="0.5" />
            <rect x="11" y="2" width="3" height="4" fill="#333" stroke="#000" stroke-width="0.5" />
        </g>
    </defs>
    
    <!-- Place the enemy for preview -->
    <use href="#enemy" filter="url(#shadow)" />
</svg> 