<?xml version="1.0" encoding="UTF-8"?>
<svg xmlns="http://www.w3.org/2000/svg" viewBox="0 0 64 64">
    <!-- Basic Tower (64x64) -->
    <defs>
        <!-- Allied Gradients -->
        <linearGradient id="alliedMetal" x1="0%" y1="0%" x2="100%" y2="100%">
            <stop offset="0%" style="stop-color:#567;stop-opacity:1" />
            <stop offset="40%" style="stop-color:#678;stop-opacity:1" />
            <stop offset="60%" style="stop-color:#456;stop-opacity:1" />
            <stop offset="100%" style="stop-color:#345;stop-opacity:1" />
        </linearGradient>
        
        <linearGradient id="alliedBlue" x1="0%" y1="0%" x2="100%" y2="100%">
            <stop offset="0%" style="stop-color:#39c;stop-opacity:1" />
            <stop offset="60%" style="stop-color:#28b;stop-opacity:1" />
            <stop offset="100%" style="stop-color:#17a;stop-opacity:1" />
        </linearGradient>
        
        <linearGradient id="gunMetal" x1="0%" y1="0%" x2="100%" y2="100%">
            <stop offset="0%" style="stop-color:#777;stop-opacity:1" />
            <stop offset="50%" style="stop-color:#555;stop-opacity:1" />
            <stop offset="100%" style="stop-color:#333;stop-opacity:1" />
        </linearGradient>
        
        <filter id="shadow" x="-0.2" y="-0.2" width="1.4" height="1.4">
            <feDropShadow dx="3" dy="3" stdDeviation="2" flood-color="#000" flood-opacity="0.6"/>
        </filter>

        <g id="allied-turret">
            <!-- Concrete Base -->
            <path d="M18 44 L18 56 L46 56 L46 44 Z" fill="#999" stroke="#000" stroke-width="2" />
            <path d="M20 49 L44 49" stroke="#777" stroke-width="1.5" stroke-dasharray="2 1" />
            <path d="M20 53 L44 53" stroke="#777" stroke-width="1.5" stroke-dasharray="2 1" />
            
            <!-- Main Bunker Structure -->
            <path d="M22 24 L22 44 L42 44 L42 24 Z" fill="url(#alliedMetal)" stroke="#000" stroke-width="2" />
            
            <!-- Allied Blue Accents -->
            <rect x="24" y="26" width="16" height="3" fill="url(#alliedBlue)" stroke="#000" stroke-width="0.5" />
            <rect x="24" y="40" width="16" height="3" fill="url(#alliedBlue)" stroke="#000" stroke-width="0.5" />
            
            <!-- Turret Housing -->
            <circle cx="32" cy="20" r="8" fill="url(#alliedMetal)" stroke="#000" stroke-width="2" />
            
            <!-- Faction Emblem -->
            <path d="M29 20 L35 20 L32 16 Z" fill="#17a" stroke="#000" stroke-width="0.5" />
            
            <!-- Gun Barrel -->
            <rect x="30" y="8" width="4" height="12" fill="url(#gunMetal)" stroke="#000" stroke-width="1" />
            <rect x="29" y="7" width="6" height="2" fill="#444" stroke="#000" stroke-width="0.5" />
            
            <!-- Viewport/Sensors -->
            <rect x="26" y="19" width="3" height="2" fill="#acf" stroke="#000" stroke-width="0.5" rx="1" />
            <rect x="35" y="19" width="3" height="2" fill="#acf" stroke="#000" stroke-width="0.5" rx="1" />
            
            <!-- Industrial Details -->
            <path d="M24 32 L40 32" stroke="#456" stroke-width="2" />
            <path d="M24 36" stroke="#456" stroke-width="2" />
            <path d="M24 36 L40 36" stroke="#456" stroke-width="2" />
            
            <!-- Warning Strip -->
            <path d="M28 29 L36 29" stroke="#ff0" stroke-width="1" stroke-dasharray="2 2" />
            <path d="M28 33 L36 33" stroke="#ff0" stroke-width="1" stroke-dasharray="2 2" />
            
            <!-- Metal Rivets -->
            <circle cx="25" cy="28" r="1" fill="#ccc" />
            <circle cx="39" cy="28" r="1" fill="#ccc" />
            <circle cx="25" cy="38" r="1" fill="#ccc" />
            <circle cx="39" cy="38" r="1" fill="#ccc" />
            
            <!-- Antenna -->
            <path d="M38 20 L40 16 L42 20" fill="none" stroke="#555" stroke-width="1" />
            <circle cx="41" cy="15" r="1" fill="#f00" />
        </g>
    </defs>

    <!-- Place the turret for preview -->
    <use href="#allied-turret" filter="url(#shadow)" />
</svg>