<svg xmlns="http://www.w3.org/2000/svg" viewBox="-32 -32 64 64">
    <defs>
        <!-- Soviet Metal Gradients -->
        <linearGradient id="bossVehicleGradient" x1="0%" y1="0%" x2="100%" y2="100%">
            <stop offset="0%" style="stop-color:#933;stop-opacity:1" />
            <stop offset="30%" style="stop-color:#c22;stop-opacity:1" />
            <stop offset="60%" style="stop-color:#711;stop-opacity:1" />
            <stop offset="100%" style="stop-color:#500;stop-opacity:1" />
        </linearGradient>

        <linearGradient id="bossTreads" x1="0%" y1="0%" x2="0%" y2="100%">
            <stop offset="0%" style="stop-color:#666;stop-opacity:1" />
            <stop offset="50%" style="stop-color:#444;stop-opacity:1" />
            <stop offset="100%" style="stop-color:#222;stop-opacity:1" />
        </linearGradient>

        <linearGradient id="energyCore" x1="0%" y1="0%" x2="100%" y2="100%">
            <stop offset="0%" style="stop-color:#f00;stop-opacity:0.6" />
            <stop offset="50%" style="stop-color:#ff0;stop-opacity:0.8" />
            <stop offset="100%" style="stop-color:#f60;stop-opacity:0.6" />
        </linearGradient>

        <linearGradient id="cannonGradient" x1="0%" y1="0%" x2="100%" y2="0%">
            <stop offset="0%" style="stop-color:#444;stop-opacity:1" />
            <stop offset="50%" style="stop-color:#555;stop-opacity:1" />
            <stop offset="100%" style="stop-color:#333;stop-opacity:1" />
        </linearGradient>

        <filter id="shadow" x="-0.2" y="-0.2" width="1.4" height="1.4">
            <feDropShadow dx="2" dy="2" stdDeviation="1.5" flood-color="#000" flood-opacity="0.6" />
        </filter>

        <filter id="glow" x="-0.3" y="-0.3" width="1.6" height="1.6">
            <feGaussianBlur stdDeviation="1.5" result="blur" />
            <feFlood flood-color="#f60" flood-opacity="0.7" result="glow" />
            <feComposite in="glow" in2="blur" operator="in" result="softGlow" />
            <feComposite in="SourceGraphic" in2="softGlow" operator="over" />
        </filter>

        <filter id="redGlow" x="-0.3" y="-0.3" width="1.6" height="1.6">
            <feGaussianBlur stdDeviation="1" result="blur" />
            <feFlood flood-color="#f00" flood-opacity="0.7" result="glow" />
            <feComposite in="glow" in2="blur" operator="in" result="softGlow" />
            <feComposite in="SourceGraphic" in2="softGlow" operator="over" />
        </filter>

        <filter id="blueGlow" x="-0.3" y="-0.3" width="1.6" height="1.6">
            <feGaussianBlur stdDeviation="1" result="blur" />
            <feFlood flood-color="#00f" flood-opacity="0.5" result="glow" />
            <feComposite in="glow" in2="blur" operator="in" result="softGlow" />
            <feComposite in="SourceGraphic" in2="softGlow" operator="over" />
        </filter>

        <!-- Energy Pulse Animation -->
        <animate id="energyPulse" attributeName="r" values="3.5;4;4.5;4;3.5" dur="2s" repeatCount="indefinite" />
    </defs>

    <!-- Boss Enemy - Apocalypse Tank (Red Alert style) -->
    <g id="bossEnemy" filter="url(#shadow)">
        <!-- Double Tank Treads -->
        <rect x="-24" y="6" width="48" height="6" rx="2" ry="2" fill="url(#bossTreads)" stroke="#000"
            stroke-width="2" />
        <rect x="-24" y="14" width="48" height="6" rx="2" ry="2" fill="url(#bossTreads)" stroke="#000"
            stroke-width="2" />

        <!-- Tread Details -->
        <path d="M-22 9 L22 9 M-22 17 L22 17" stroke="#000" stroke-width="0.5" />
        <path d="M-22 7 L22 7 M-22 11 L22 11 M-22 15 L22 15 M-22 19 L22 19" stroke="#000" stroke-width="0.5"
            stroke-dasharray="3 3" />

        <!-- Main Tank Body - Massive -->
        <path d="M-22 6 L22 6 L18 -8 L-18 -8 Z" fill="url(#bossVehicleGradient)" stroke="#000" stroke-width="3" />

        <!-- Armor Plating -->
        <path d="M-18 4 L18 4 L16 -6 L-16 -6 Z" fill="#611" stroke="#000" stroke-width="1.5" />
        <path d="M-16 2 L16 2" stroke="#000" stroke-width="1" stroke-dasharray="4 4" />
        <path d="M-16 0 L16 0" stroke="#000" stroke-width="1" stroke-dasharray="4 4" />
        <path d="M-16 -2 L16 -2" stroke="#000" stroke-width="1" stroke-dasharray="4 4" />
        <path d="M-16 -4 L16 -4" stroke="#000" stroke-width="1" stroke-dasharray="4 4" />

        <!-- Main Turret - Imposing -->
        <path d="M-14 -8 L14 -8 L12 -16 L-12 -16 Z" fill="#922" stroke="#000" stroke-width="2.5" />

        <!-- Dual Heavy Cannons -->
        <rect x="-10" y="-30" width="6" height="14" rx="1" ry="1" fill="url(#cannonGradient)" stroke="#000"
            stroke-width="1.5" />
        <rect x="4" y="-30" width="6" height="14" rx="1" ry="1" fill="url(#cannonGradient)" stroke="#000"
            stroke-width="1.5" />

        <!-- Cannon Details -->
        <circle cx="-7" cy="-28" r="2" fill="#333" stroke="#000" stroke-width="0.5" />
        <circle cx="7" cy="-28" r="2" fill="#333" stroke="#000" stroke-width="0.5" />
        <path d="M-10 -26 L-4 -26 M-10 -22 L-4 -22 M4 -26 L10 -26 M4 -22 L10 -22" stroke="#222" stroke-width="0.5"
            stroke-dasharray="1 1" />

        <!-- Energy Core (Glowing) -->
        <circle cx="0" cy="-12" r="4" fill="url(#energyCore)" filter="url(#glow)">
            <animate attributeName="r" values="3.5;4;4.5;4;3.5" dur="2s" repeatCount="indefinite" />
        </circle>
        <circle cx="0" cy="-12" r="2" fill="#ff9" filter="url(#glow)" opacity="0.7" />

        <!-- Boss Insignia - Large Star -->
        <path d="M0,-4 L3,2 L10,3 L5,8 L6,15 L0,12 L-6,15 L-5,8 L-10,3 L-3,2 Z" fill="#ff0" stroke="#f00"
            stroke-width="1" />

        <!-- Warning Stripes - Heavy -->
        <path d="M-18 -10 L18 -10" stroke="#ff0" stroke-width="3" stroke-dasharray="6 6" />

        <!-- Heavy Rivets -->
        <circle cx="-18" cy="-2" r="2" fill="#aaa" stroke="#000" stroke-width="0.5" />
        <circle cx="18" cy="-2" r="2" fill="#aaa" stroke="#000" stroke-width="0.5" />
        <circle cx="-14" cy="-12" r="2" fill="#aaa" stroke="#000" stroke-width="0.5" />
        <circle cx="14" cy="-12" r="2" fill="#aaa" stroke="#000" stroke-width="0.5" />

        <!-- Side Mounted Missile Launchers -->
        <rect x="-22" y="-6" width="6" height="10" rx="1" ry="1" fill="#555" stroke="#000" stroke-width="1" />
        <rect x="16" y="-6" width="6" height="10" rx="1" ry="1" fill="#555" stroke="#000" stroke-width="1" />
        <circle cx="-19" cy="-4" r="1" fill="#f00" filter="url(#redGlow)" />
        <circle cx="-19" cy="-1" r="1" fill="#f00" filter="url(#redGlow)" />
        <circle cx="19" cy="-4" r="1" fill="#f00" filter="url(#redGlow)" />
        <circle cx="19" cy="-1" r="1" fill="#f00" filter="url(#redGlow)" />

        <!-- Launcher Details -->
        <path d="M-22 -3 L-16 -3 M-22 0 L-16 0 M16 -3 L22 -3 M16 0 L22 0" stroke="#333" stroke-width="0.5"
            stroke-dasharray="1 1" />

        <!-- Menacing "Eyes" -->
        <circle cx="-8" cy="-12" r="2" fill="#f00" filter="url(#redGlow)" />
        <circle cx="8" cy="-12" r="2" fill="#f00" filter="url(#redGlow)" />
        <circle cx="-8" cy="-12" r="0.7" fill="#fff" opacity="0.7" />
        <circle cx="8" cy="-12" r="0.7" fill="#fff" opacity="0.7" />

        <!-- Exhaust System - Massive -->
        <rect x="-20" y="0" width="5" height="4" rx="1" ry="1" fill="#333" stroke="#000" stroke-width="0.5" />
        <rect x="15" y="0" width="5" height="4" rx="1" ry="1" fill="#333" stroke="#000" stroke-width="0.5" />
        <path d="M-18 0 L-18 -6 M-16 0 L-16 -8" stroke="#666" stroke-width="2" />
        <path d="M18 0 L18 -6 M16 0 L16 -8" stroke="#666" stroke-width="2" />

        <!-- Exhaust Smoke/Fire -->
        <path d="M-19 -1 L-22 -4 M-17 -1 L-24 -7" stroke="#999" stroke-width="1" stroke-opacity="0.7" />
        <path d="M19 -1 L22 -4 M17 -1 L24 -7" stroke="#999" stroke-width="1" stroke-opacity="0.7" />
        <path d="M-20 -1 L-23 -5 M16 -1 L19 -5" stroke="#f60" stroke-width="0.8" stroke-opacity="0.5" />

        <!-- Additional Detailing -->
        <rect x="-6" y="-22" width="12" height="6" rx="2" ry="2" fill="#611" stroke="#000" stroke-width="1" />
        <path d="M-4 -22 L-4 -16 M0 -22 L0 -16 M4 -22 L4 -16" stroke="#500" stroke-width="0.5" stroke-dasharray="1 1" />

        <!-- Antenna/Radar -->
        <path d="M0 -22 L0 -26" stroke="#888" stroke-width="1" />
        <circle cx="0" cy="-27" r="1" fill="#f00" filter="url(#redGlow)" />
        <path d="M0 -26 L3 -24 L-3 -24 Z" fill="#888" stroke="#666" stroke-width="0.5" />

        <!-- Spike Decorations -->
        <path d="M-24 10 L-28 10 M-24 16 L-28 16 M24 10 L28 10 M24 16 L28 16" stroke="#833" stroke-width="2" />
        <path d="M-26 10 L-28 8 M-26 16 L-28 14 M26 10 L28 8 M26 16 L28 14" stroke="#922" stroke-width="1" />

        <!-- Tesla Coil Decoration -->
        <path d="M0 -16 L3 -18 L0 -20 L-3 -18 Z" fill="#99f" stroke="#00f" stroke-width="0.5" filter="url(#blueGlow)" />
        <path d="M0 -16 L0 -20" stroke="#99f" stroke-width="0.5" />
        <path d="M-3 -18 L3 -18" stroke="#99f" stroke-width="0.5" />
        <circle cx="0" cy="-18" r="0.7" fill="#fff" opacity="0.8" />

        <!-- Additional Tesla Energy Effects -->
        <path d="M-1 -17 L1 -19 M1 -17 L-1 -19" stroke="#fff" stroke-width="0.3" opacity="0.7" />
    </g>
</svg>