<svg xmlns="http://www.w3.org/2000/svg" viewBox="-32 -32 64 64">
    <defs>
        <!-- Soviet Metal Gradients -->
        <linearGradient id="strongVehicleGradient" x1="0%" y1="0%" x2="100%" y2="100%">
            <stop offset="0%" style="stop-color:#933;stop-opacity:1" />
            <stop offset="40%" style="stop-color:#a44;stop-opacity:1" />
            <stop offset="70%" style="stop-color:#822;stop-opacity:1" />
            <stop offset="100%" style="stop-color:#611;stop-opacity:1" />
        </linearGradient>
        
        <linearGradient id="strongTreads" x1="0%" y1="0%" x2="0%" y2="100%">
            <stop offset="0%" style="stop-color:#666;stop-opacity:1" />
            <stop offset="50%" style="stop-color:#444;stop-opacity:1" />
            <stop offset="100%" style="stop-color:#222;stop-opacity:1" />
        </linearGradient>
        
        <filter id="shadow" x="-0.2" y="-0.2" width="1.4" height="1.4">
            <feDropShadow dx="2" dy="2" stdDeviation="1.5" flood-color="#000" flood-opacity="0.6"/>
        </filter>
        
        <!-- Armor Plate Pattern -->
        <pattern id="armorPattern" patternUnits="userSpaceOnUse" width="10" height="10">
            <rect width="10" height="10" fill="#922"/>
            <path d="M0 0 L10 10 M10 0 L0 10" stroke="#711" stroke-width="1"/>
        </pattern>
    </defs>
    
    <!-- Strong Enemy - Heavily Armored Tank -->
    <g id="strongEnemy" filter="url(#shadow)">
        <!-- Tank Treads - Wider and more robust -->
        <rect x="-20" y="8" width="40" height="8" rx="2" ry="2" 
              fill="url(#strongTreads)" stroke="#000" stroke-width="1.5" />
        
        <!-- Tread Details -->
        <path d="M-18 12 L18 12" stroke="#000" stroke-width="0.5" />
        <path d="M-18 10 L18 10 M-18 14 L18 14" 
              stroke="#000" stroke-width="0.5" stroke-dasharray="2 2" />
              
        <!-- Main Tank Body - Heavier, more angular -->
        <path d="M-18 8 L18 8 L16 -8 L-16 -8 Z" 
              fill="url(#strongVehicleGradient)" stroke="#000" stroke-width="2" />
              
        <!-- Armor Plating -->
        <path d="M-14 6 L14 6 L13 -4 L-13 -4 Z" 
              fill="url(#armorPattern)" stroke="#000" stroke-width="1" />
              
        <!-- Tank Turret - Heavy Duty -->
        <path d="M-12 -8 L12 -8 L10 -16 L-10 -16 Z" 
              fill="#822" stroke="#000" stroke-width="2" />
              
        <!-- Main Cannons - Dual -->
        <rect x="-8" y="-26" width="4" height="10" 
              fill="#444" stroke="#000" stroke-width="1" />
        <rect x="4" y="-26" width="4" height="10" 
              fill="#444" stroke="#000" stroke-width="1" />
              
        <!-- Soviet Star Symbol -->
        <path d="M0,-12 L2.5,-8 L7,-6.5 L4,-3 L5,1 L0,-1.5 L-5,1 L-4,-3 L-7,-6.5 L-2.5,-8 Z" 
              fill="#ff0" stroke="#000" stroke-width="0.5" />
              
        <!-- Warning Stripe - Heavy Duty -->
        <path d="M-14 0 L14 0" stroke="#ff0" stroke-width="3" stroke-dasharray="4 4" />
              
        <!-- Rivets - More Prominent -->
        <circle cx="-14" cy="-2" r="1.5" fill="#ccc" />
        <circle cx="14" cy="-2" r="1.5" fill="#ccc" />
        <circle cx="-12" cy="-12" r="1.5" fill="#ccc" />
        <circle cx="12" cy="-12" r="1.5" fill="#ccc" />
        
        <!-- Side Armor Plates -->
        <rect x="-18" y="-6" width="4" height="12" rx="1" ry="1" 
              fill="#922" stroke="#000" stroke-width="1" />
        <rect x="14" y="-6" width="4" height="12" rx="1" ry="1" 
              fill="#922" stroke="#000" stroke-width="1" />
        
        <!-- Tank Lights (Eyes) - Menacing -->
        <circle cx="-8" cy="-6" r="2" fill="#f60" stroke="#000" stroke-width="0.5" />
        <circle cx="8" cy="-6" r="2" fill="#f60" stroke="#000" stroke-width="0.5" />
        <circle cx="-8" cy="-6" r="1" fill="#f90" />
        <circle cx="8" cy="-6" r="1" fill="#f90" />
        
        <!-- Exhaust Pipes - Heavy Duty -->
        <rect x="-16" y="0" width="4" height="6" fill="#333" stroke="#000" stroke-width="0.5" />
        <path d="M-15 0 L-15 -2 M-13 0 L-13 -3" stroke="#888" stroke-width="1.5" />
        <rect x="12" y="0" width="4" height="6" fill="#333" stroke="#000" stroke-width="0.5" />
        <path d="M13 0 L13 -2 M15 0 L15 -3" stroke="#888" stroke-width="1.5" />
    </g>
</svg>